<?xml version="1.0" encoding="UTF-8" standalone="no"?>
<!-- Created with Inkscape (http://www.inkscape.org/) -->
<svg xmlns:dc="http://purl.org/dc/elements/1.1/" xmlns:cc="http://creativecommons.org/ns#" xmlns:rdf="http://www.w3.org/1999/02/22-rdf-syntax-ns#" xmlns:svg="http://www.w3.org/2000/svg" xmlns="http://www.w3.org/2000/svg" xmlns:sodipodi="http://sodipodi.sourceforge.net/DTD/sodipodi-0.dtd" xmlns:inkscape="http://www.inkscape.org/namespaces/inkscape" width="647.94897" height="139.42276" id="svg4126" version="1.1" inkscape:version="0.48.4 r9939" sodipodi:docname="binary-tree-less-than-n.svg">
  <defs id="defs4128">
    <clipPath clipPathUnits="userSpaceOnUse" id="clipPath482">
      <path inkscape:connector-curvature="0" d="m 0,2.324581e-5 719.9999,0 0,539.99999675419 L 0,540.00002 0,2.324581e-5 z" id="path484"/>
    </clipPath>
  </defs>
  <sodipodi:namedview id="base" pagecolor="#ffffff" bordercolor="#666666" borderopacity="1.0" inkscape:pageopacity="0.0" inkscape:pageshadow="2" inkscape:zoom="1.4" inkscape:cx="397.31965" inkscape:cy="-90.15799" inkscape:document-units="px" inkscape:current-layer="layer2" showgrid="false" fit-margin-top="0" fit-margin-left="0" fit-margin-right="0" fit-margin-bottom="0" inkscape:window-width="1500" inkscape:window-height="937" inkscape:window-x="329" inkscape:window-y="441" inkscape:window-maximized="0"/>
  <metadata id="metadata4131">
    <rdf:RDF>
      <cc:Work rdf:about="">
        <dc:format>image/svg+xml</dc:format>
        <dc:type rdf:resource="http://purl.org/dc/dcmitype/StillImage"/>
        <dc:title/>
      </cc:Work>
    </rdf:RDF>
  </metadata>
  <g style="display:inline" inkscape:label="o1" inkscape:groupmode="layer" id="layer1" transform="translate(104.16548,-217.06714)">    <text style="font-size:15px" id="text78" x="233.14861" y="258.40314">
      <tspan id="tspan80" sodipodi:role="line" x="310.82358 345.3436" style="font-size:25px;font-variant:normal;font-weight:normal;writing-mode:lr-tb;fill:#000000;fill-opacity:1;fill-rule:nonzero;stroke:none;font-family:Tahoma;-inkscape-font-specification:Tahoma"/>
    </text>
    <path id="path488" style="fill:none;stroke:#007879;stroke-width:2.49999952;stroke-linecap:butt;stroke-linejoin:round;stroke-miterlimit:10;stroke-opacity:1;stroke-dasharray:none" d="m -92.244358,349.47178 16.061033,-34.91633" inkscape:connector-curvature="0"/>
    <path id="path492" style="fill:none;stroke:#007879;stroke-width:2.49999952;stroke-linecap:butt;stroke-linejoin:round;stroke-miterlimit:10;stroke-opacity:1;stroke-dasharray:none" d="M -59.635863,349.47178 -76.183292,314.55545" inkscape:connector-curvature="0"/>
    <path inkscape:connector-curvature="0" d="m -97.248105,349.10812 c 0,-3.21396 2.40575,-5.81936 5.37325,-5.81936 2.9675,0 5.37325,2.6054 5.37325,5.81936 0,3.21397 -2.40575,5.81939 -5.37325,5.81939 -2.9675,0 -5.37325,-2.60542 -5.37325,-5.81939 z" style="fill:#ffffff;fill-opacity:1;fill-rule:evenodd;stroke:none" id="path494"/>
    <path id="path498" style="fill:none;stroke:#000000;stroke-width:1.87499964;stroke-linecap:butt;stroke-linejoin:round;stroke-miterlimit:10;stroke-opacity:1;stroke-dasharray:none" d="m -97.248104,349.10815 c 0,-3.21396 2.405672,-5.81939 5.37323,-5.81939 2.967548,0 5.373223,2.60543 5.373223,5.81939 0,3.21396 -2.405675,5.81939 -5.373223,5.81939 -2.967558,0 -5.37323,-2.60543 -5.37323,-5.81939 z" inkscape:connector-curvature="0"/>
    <path inkscape:connector-curvature="0" d="m -65.009105,349.47181 c 0,-3.21395 2.405625,-5.81942 5.37325,-5.81942 2.9675,0 5.37325,2.60547 5.37325,5.81942 0,3.21396 -2.40575,5.81939 -5.37325,5.81939 -2.967625,0 -5.37325,-2.60543 -5.37325,-5.81939 z" style="fill:#ffffff;fill-opacity:1;fill-rule:evenodd;stroke:none" id="path500"/>
    <path id="path504" style="fill:none;stroke:#000000;stroke-width:1.87499964;stroke-linecap:butt;stroke-linejoin:round;stroke-miterlimit:10;stroke-opacity:1;stroke-dasharray:none" d="m -65.009108,349.47178 c 0,-3.21396 2.405681,-5.81939 5.373229,-5.81939 2.967549,0 5.373228,2.60543 5.373228,5.81939 0,3.21396 -2.405679,5.81939 -5.373228,5.81939 -2.967548,0 -5.373229,-2.60543 -5.373229,-5.81939 z" inkscape:connector-curvature="0"/>
    <path id="path508" style="fill:none;stroke:#007879;stroke-width:2.49999952;stroke-linecap:butt;stroke-linejoin:round;stroke-miterlimit:10;stroke-opacity:1;stroke-dasharray:none" d="m -37.831104,349.47178 16.061019,-34.91633" inkscape:connector-curvature="0"/>
    <path inkscape:connector-curvature="0" d="m -42.834855,349.10812 c 0,-3.21396 2.40575,-5.81936 5.37325,-5.81936 2.967625,0 5.37325,2.6054 5.37325,5.81936 0,3.21397 -2.405625,5.81939 -5.37325,5.81939 -2.9675,0 -5.37325,-2.60542 -5.37325,-5.81939 z" style="fill:#ffffff;fill-opacity:1;fill-rule:evenodd;stroke:none" id="path510"/>
    <path id="path514" style="fill:none;stroke:#000000;stroke-width:1.87499964;stroke-linecap:butt;stroke-linejoin:round;stroke-miterlimit:10;stroke-opacity:1;stroke-dasharray:none" d="m -42.834853,349.10815 c 0,-3.21396 2.405682,-5.81939 5.37323,-5.81939 2.967548,0 5.373232,2.60543 5.373232,5.81939 0,3.21396 -2.405684,5.81939 -5.373232,5.81939 -2.967548,0 -5.37323,-2.60543 -5.37323,-5.81939 z" inkscape:connector-curvature="0"/>
    <path id="path518" style="fill:none;stroke:#007879;stroke-width:2.49999952;stroke-linecap:butt;stroke-linejoin:round;stroke-miterlimit:10;stroke-opacity:1;stroke-dasharray:none" d="m -72.383858,310.44039 23.435913,-36.62076" inkscape:connector-curvature="0"/>
    <path id="path522" style="fill:none;stroke:#007879;stroke-width:2.49999952;stroke-linecap:butt;stroke-linejoin:round;stroke-miterlimit:10;stroke-opacity:1;stroke-dasharray:none" d="M -25.569471,310.44039 -48.849878,273.81963" inkscape:connector-curvature="0"/>
    <path inkscape:connector-curvature="0" d="m -81.55648,314.55551 c 0,-3.214 2.40575,-5.81937 5.37325,-5.81937 2.967625,0 5.37325,2.60537 5.37325,5.81937 0,3.21388 -2.405625,5.81938 -5.37325,5.81938 -2.9675,0 -5.37325,-2.6055 -5.37325,-5.81938 z" style="fill:#ffffff;fill-opacity:1;fill-rule:evenodd;stroke:none" id="path524"/>
    <path id="path528" style="fill:none;stroke:#000000;stroke-width:1.87499964;stroke-linecap:butt;stroke-linejoin:round;stroke-miterlimit:10;stroke-opacity:1;stroke-dasharray:none" d="m -81.556477,314.55553 c 0,-3.21396 2.405672,-5.81939 5.37322,-5.81939 2.967567,0 5.373231,2.60543 5.373231,5.81939 0,3.21396 -2.405664,5.81939 -5.373231,5.81939 -2.967548,0 -5.37322,-2.60543 -5.37322,-5.81939 z" inkscape:connector-curvature="0"/>
    <path inkscape:connector-curvature="0" d="m -27.143105,314.55551 c 0,-3.214 2.405625,-5.81937 5.373125,-5.81937 2.967625,0 5.37325,2.60537 5.37325,5.81937 0,3.21388 -2.405625,5.81938 -5.37325,5.81938 -2.9675,0 -5.373125,-2.6055 -5.373125,-5.81938 z" style="fill:#ffffff;fill-opacity:1;fill-rule:evenodd;stroke:none" id="path530"/>
    <path id="path534" style="fill:none;stroke:#000000;stroke-width:1.87499964;stroke-linecap:butt;stroke-linejoin:round;stroke-miterlimit:10;stroke-opacity:1;stroke-dasharray:none" d="m -27.143116,314.55553 c 0,-3.21396 2.405682,-5.81939 5.373229,-5.81939 2.967549,0 5.373226,2.60543 5.373226,5.81939 0,3.21396 -2.405677,5.81939 -5.373226,5.81939 -2.967547,0 -5.373229,-2.60543 -5.373229,-5.81939 z" inkscape:connector-curvature="0"/>
    <path inkscape:connector-curvature="0" d="m -54.476605,273.81951 c 0,-3.21388 2.405625,-5.81937 5.37325,-5.81937 2.9675,0 5.37325,2.60549 5.37325,5.81937 0,3.214 -2.40575,5.81938 -5.37325,5.81938 -2.967625,0 -5.37325,-2.60538 -5.37325,-5.81938 z" style="fill:#ffffff;fill-opacity:1;fill-rule:evenodd;stroke:none" id="path536"/>
    <path id="path540" style="fill:none;stroke:#000000;stroke-width:1.87499964;stroke-linecap:butt;stroke-linejoin:round;stroke-miterlimit:10;stroke-opacity:1;stroke-dasharray:none" d="m -54.476613,273.81954 c 0,-3.21396 2.405682,-5.8194 5.37323,-5.8194 2.967548,0 5.373232,2.60544 5.373232,5.8194 0,3.21395 -2.405684,5.81938 -5.373232,5.81938 -2.967548,0 -5.37323,-2.60543 -5.37323,-5.81938 z" inkscape:connector-curvature="0"/>
    <path id="path544" style="fill:none;stroke:#007879;stroke-width:2.81249928;stroke-linecap:butt;stroke-linejoin:round;stroke-miterlimit:10;stroke-opacity:1;stroke-dasharray:none" d="M 35.039879,310.44039 58.475795,273.81963" inkscape:connector-curvature="0"/>
    <path id="path548" style="fill:none;stroke:#007879;stroke-width:2.49999952;stroke-linecap:butt;stroke-linejoin:round;stroke-miterlimit:10;stroke-opacity:1;stroke-dasharray:none" d="M 81.854256,310.44039 58.573842,273.81963" inkscape:connector-curvature="0"/>
    <path inkscape:connector-curvature="0" d="m 25.867145,314.55551 c 0,-3.214 2.40575,-5.81937 5.37325,-5.81937 2.9675,0 5.37325,2.60537 5.37325,5.81937 0,3.21388 -2.40575,5.81938 -5.37325,5.81938 -2.9675,0 -5.37325,-2.6055 -5.37325,-5.81938 z" style="fill:#ffffff;fill-opacity:1;fill-rule:evenodd;stroke:none" id="path550"/>
    <path id="path554" style="fill:none;stroke:#000000;stroke-width:1.87499964;stroke-linecap:butt;stroke-linejoin:round;stroke-miterlimit:10;stroke-opacity:1;stroke-dasharray:none" d="m 25.867138,314.55553 c 0,-3.21396 2.405682,-5.81939 5.373229,-5.81939 2.967549,0 5.373232,2.60543 5.373232,5.81939 0,3.21396 -2.405683,5.81939 -5.373232,5.81939 -2.967547,0 -5.373229,-2.60543 -5.373229,-5.81939 z" inkscape:connector-curvature="0"/>
    <path inkscape:connector-curvature="0" d="m 80.280395,314.55551 c 0,-3.214 2.40575,-5.81937 5.37325,-5.81937 2.967625,0 5.37325,2.60537 5.37325,5.81937 0,3.21388 -2.405625,5.81938 -5.37325,5.81938 -2.9675,0 -5.37325,-2.6055 -5.37325,-5.81938 z" style="fill:#ffffff;fill-opacity:1;fill-rule:evenodd;stroke:none" id="path556"/>
    <path id="path560" style="fill:none;stroke:#000000;stroke-width:1.87499964;stroke-linecap:butt;stroke-linejoin:round;stroke-miterlimit:10;stroke-opacity:1;stroke-dasharray:none" d="m 80.280395,314.55553 c 0,-3.21396 2.405662,-5.81939 5.373229,-5.81939 2.967568,0 5.373225,2.60543 5.373225,5.81939 0,3.21396 -2.405657,5.81939 -5.373225,5.81939 -2.967567,0 -5.373229,-2.60543 -5.373229,-5.81939 z" inkscape:connector-curvature="0"/>
    <path inkscape:connector-curvature="0" d="m 52.94702,273.81951 c 0,-3.21388 2.40575,-5.81937 5.37325,-5.81937 2.967625,0 5.37325,2.60549 5.37325,5.81937 0,3.214 -2.405625,5.81938 -5.37325,5.81938 -2.9675,0 -5.37325,-2.60538 -5.37325,-5.81938 z" style="fill:#ffffff;fill-opacity:1;fill-rule:evenodd;stroke:none" id="path562"/>
    <path id="path566" style="fill:none;stroke:#000000;stroke-width:1.87499964;stroke-linecap:butt;stroke-linejoin:round;stroke-miterlimit:10;stroke-opacity:1;stroke-dasharray:none" d="m 52.947027,273.81954 c 0,-3.21396 2.405681,-5.8194 5.373229,-5.8194 2.967549,0 5.373228,2.60544 5.373228,5.8194 0,3.21395 -2.405679,5.81938 -5.373228,5.81938 -2.967548,0 -5.373229,-2.60543 -5.373229,-5.81938 z" inkscape:connector-curvature="0"/>
    <path inkscape:connector-curvature="0" d="m -0.531105,227.26439 c 0,-3.21388 2.40575,-5.81938 5.37325,-5.81938 2.967625,0 5.37325,2.6055 5.37325,5.81938 0,3.214 -2.405625,5.81937 -5.37325,5.81937 -2.9675,0 -5.37325,-2.60538 -5.37325,-5.81937 z" style="fill:#ffffff;fill-opacity:1;fill-rule:evenodd;stroke:none" id="path568"/>
    <path id="path572" style="fill:none;stroke:#000000;stroke-width:1.87499964;stroke-linecap:butt;stroke-linejoin:round;stroke-miterlimit:10;stroke-opacity:1;stroke-dasharray:none" d="m -0.53110798,227.26442 c 0,-3.21396 2.40568158,-5.8194 5.37323018,-5.8194 2.9675475,0 5.3732268,2.60544 5.3732268,5.8194 0,3.21396 -2.4056793,5.81938 -5.3732268,5.81938 -2.9675486,0 -5.37323018,-2.60542 -5.37323018,-5.81938 z" inkscape:connector-curvature="0"/>
    <path id="path576" style="fill:none;stroke:#007879;stroke-width:2.49999952;stroke-linecap:butt;stroke-linejoin:round;stroke-miterlimit:10;stroke-opacity:1;stroke-dasharray:none" d="M -45.303981,269.70452 1.0428503,231.37932" inkscape:connector-curvature="0"/>
    <path id="path580" style="fill:none;stroke:#007879;stroke-width:2.81249928;stroke-linecap:butt;stroke-linejoin:round;stroke-miterlimit:10;stroke-opacity:1;stroke-dasharray:none" d="M 52.57764,269.70452 8.6416213,231.37932" inkscape:connector-curvature="0"/>
    <text style="font-size:15px" id="text72-4" x="270.2287" y="258.40314">
      <tspan id="tspan74-7" sodipodi:role="line" x="283.86615 291.67865 305.31616" style="font-size:25px;font-variant:normal;font-weight:normal;writing-mode:lr-tb;fill:#333399;fill-opacity:1;fill-rule:nonzero;stroke:none;font-family:Arial;-inkscape-font-specification:Arial"/>
    </text>
  </g>
  <g inkscape:groupmode="layer" id="layer2" inkscape:label="o2" style="display:none">    <text transform="translate(104.16548,-217.06714)" style="font-size:15px" id="text60" x="144.40352" y="258.40314">
      <tspan id="tspan62" y="258.40314" x="144.40352" style="font-size:25px;font-variant:normal;font-weight:normal;writing-mode:lr-tb;fill:#333399;fill-opacity:1;fill-rule:nonzero;stroke:none;font-family:Arial;-inkscape-font-specification:Arial">2</tspan>
    </text>
    <text transform="translate(104.16548,-217.06714)" style="font-size:15px" id="text66" x="158.05098" y="250.90312">
      <tspan id="tspan68" sodipodi:role="line" y="250.90312" x="158.05098 167.26262 173.3243" style="font-size:16.66666222px;font-variant:normal;font-weight:normal;writing-mode:lr-tb;fill:#4349aa;fill-opacity:1;fill-rule:nonzero;stroke:none;font-family:Arial;-inkscape-font-specification:Arial">d-1</tspan>
    </text>
    <text transform="translate(104.16548,-217.06714)" style="font-size:15px" id="text72" x="190.22868" y="258.40314">
      <tspan id="tspan74" sodipodi:role="line" y="258.40314" x="190.22868 203.86617 211.67867 211.67867 225.31618" style="font-size:25px;font-variant:normal;font-weight:normal;writing-mode:lr-tb;fill:#333399;fill-opacity:1;fill-rule:nonzero;stroke:none;font-family:Arial;-inkscape-font-specification:Arial">– 1</tspan>
    </text>
    <path transform="translate(104.16548,-217.06714)" inkscape:connector-curvature="0" id="path98" style="fill:none;stroke:#007879;stroke-width:5.62499905;stroke-linecap:butt;stroke-linejoin:round;stroke-miterlimit:10;stroke-opacity:1;stroke-dasharray:none" d="M 135.40352,260.61526 85.597756,277.80392"/>
    <path transform="translate(104.16548,-217.06714)" d="m 93.479636,266.15789 -13.19925,13.48112 18.70438,2.47063 -5.50513,-15.95175 z" style="fill:#007879;fill-opacity:1;fill-rule:evenodd;stroke:none" id="path100" inkscape:connector-curvature="0"/>
    <text transform="translate(104.16548,-217.06714)" xml:space="preserve" style="font-size:25px;font-style:normal;font-variant:normal;font-weight:normal;font-stretch:normal;text-align:start;line-height:125%;letter-spacing:0px;word-spacing:0px;text-anchor:start;fill:#000000;fill-opacity:1;stroke:none;font-family:Arial;-inkscape-font-specification:Sans" x="229.97737" y="256.22867" id="text3076" sodipodi:linespacing="125%"><tspan sodipodi:role="line" id="tspan3078" x="229.97737" y="256.22867">nodes in full tree till layer d-1</tspan></text>
    <text transform="translate(104.16548,-217.06714)" xml:space="preserve" style="font-size:25px;font-style:normal;font-variant:normal;font-weight:normal;font-stretch:normal;text-align:start;line-height:125%;letter-spacing:0px;word-spacing:0px;text-anchor:start;fill:#000000;fill-opacity:1;stroke:none;font-family:Arial;-inkscape-font-specification:Sans" x="42.834515" y="351.22867" id="text3076-1" sodipodi:linespacing="125%"><tspan sodipodi:role="line" id="tspan3078-8" x="42.834515" y="351.22867">at least 1 node in layer d</tspan></text>
    <path transform="translate(104.16548,-217.06714)" d="M -104.16548,320.37489 4.5845163,217.06714 113.33452,320.37489 l -217.5,0 z" style="opacity:0.4;fill:#fffb00;fill-opacity:1;fill-rule:evenodd;stroke:none" id="path56" inkscape:connector-curvature="0"/>
    <path transform="translate(104.16548,-217.06714)" id="path584" style="fill:none;stroke:#007879;stroke-width:5.62499857;stroke-linecap:butt;stroke-linejoin:round;stroke-miterlimit:10;stroke-opacity:1;stroke-dasharray:none" d="m 38.334525,344.56915 -53.378349,2.93355" inkscape:connector-curvature="0"/>
    <path transform="translate(104.16548,-217.06714)" inkscape:connector-curvature="0" d="m -4.273855,338.46051 -16.3865,9.35085 17.3125,7.49878 -0.926,-16.84963 z" style="fill:#007879;fill-opacity:1;fill-rule:evenodd;stroke:none" id="path586"/>
  </g>
</svg>
