<?xml version="1.0" encoding="UTF-8" standalone="no"?>
<!-- Created with Inkscape (http://www.inkscape.org/) -->

<svg
   xmlns:dc="http://purl.org/dc/elements/1.1/"
   xmlns:cc="http://creativecommons.org/ns#"
   xmlns:rdf="http://www.w3.org/1999/02/22-rdf-syntax-ns#"
   xmlns:svg="http://www.w3.org/2000/svg"
   xmlns="http://www.w3.org/2000/svg"
   xmlns:sodipodi="http://sodipodi.sourceforge.net/DTD/sodipodi-0.dtd"
   xmlns:inkscape="http://www.inkscape.org/namespaces/inkscape"
   width="751.18811"
   height="139.16151"
   id="svg4126"
   version="1.1"
   inkscape:version="0.48.4 r9939"
   sodipodi:docname="Neues Dokument 3">
  <defs
     id="defs4128">
    <clipPath
       clipPathUnits="userSpaceOnUse"
       id="clipPath482">
      <path
         inkscape:connector-curvature="0"
         d="m 0,2.324581e-5 719.9999,0 0,539.99999675419 L 0,540.00002 0,2.324581e-5 z"
         id="path484" />
    </clipPath>
  </defs>
  <sodipodi:namedview
     id="base"
     pagecolor="#ffffff"
     bordercolor="#666666"
     borderopacity="1.0"
     inkscape:pageopacity="0.0"
     inkscape:pageshadow="2"
     inkscape:zoom="0.35"
     inkscape:cx="454.16548"
     inkscape:cy="-176.13352"
     inkscape:document-units="px"
     inkscape:current-layer="layer1"
     showgrid="false"
     fit-margin-top="0"
     fit-margin-left="0"
     fit-margin-right="0"
     fit-margin-bottom="0"
     inkscape:window-width="1500"
     inkscape:window-height="937"
     inkscape:window-x="329"
     inkscape:window-y="441"
     inkscape:window-maximized="0" />
  <metadata
     id="metadata4131">
    <rdf:RDF>
      <cc:Work
         rdf:about="">
        <dc:format>image/svg+xml</dc:format>
        <dc:type
           rdf:resource="http://purl.org/dc/dcmitype/StillImage" />
        <dc:title></dc:title>
      </cc:Work>
    </rdf:RDF>
  </metadata>
  <g
     inkscape:label="Ebene 1"
     inkscape:groupmode="layer"
     id="layer1"
     transform="translate(104.16548,-217.06714)">
    <path
       d="M -104.16548,320.37489 4.5845163,217.06714 113.33452,320.37489 l -217.5,0 z"
       style="fill:#fffb00;fill-opacity:1;fill-rule:evenodd;stroke:none"
       id="path56"
       inkscape:connector-curvature="0" />
    <text
       style="font-size:15px"
       id="text60"
       x="144.40352"
       y="258.40314">
      <tspan
         id="tspan62"
         y="258.40314"
         x="144.40352"
         style="font-size:25px;font-variant:normal;font-weight:normal;writing-mode:lr-tb;fill:#333399;fill-opacity:1;fill-rule:nonzero;stroke:none;font-family:Tahoma;-inkscape-font-specification:Tahoma">2</tspan>
    </text>
    <text
       style="font-size:15px"
       id="text66"
       x="158.05098"
       y="250.90312">
      <tspan
         id="tspan68"
         sodipodi:role="line"
         y="250.90312"
         x="158.05098 167.26262 173.3243"
         style="font-size:16.66666222px;font-variant:normal;font-weight:normal;writing-mode:lr-tb;fill:#4349aa;fill-opacity:1;fill-rule:nonzero;stroke:none;font-family:Tahoma;-inkscape-font-specification:Tahoma">d-1</tspan>
    </text>
    <text
       style="font-size:15px"
       id="text72"
       x="190.22868"
       y="258.40314">
      <tspan
         id="tspan74"
         sodipodi:role="line"
         y="258.40314"
         x="190.22868 203.86617 211.67867 225.31618"
         style="font-size:25px;font-variant:normal;font-weight:normal;writing-mode:lr-tb;fill:#333399;fill-opacity:1;fill-rule:nonzero;stroke:none;font-family:Tahoma;-inkscape-font-specification:Tahoma">– 1</tspan>
    </text>
    <text
       style="font-size:15px"
       id="text78"
       x="233.14861"
       y="258.40314">
      <tspan
         id="tspan80"
         sodipodi:role="line"
         y="258.40314"
         x="233.14861 247.84608 261.78607 275.36105 283.72357 296.88358 310.82358 318.63608 324.34857 345.3436"
         style="font-size:25px;font-variant:normal;font-weight:normal;writing-mode:lr-tb;fill:#000000;fill-opacity:1;fill-rule:nonzero;stroke:none;font-family:Tahoma;-inkscape-font-specification:Tahoma">Knoten im</tspan>
    </text>
    <text
       style="font-size:15px"
       id="text84"
       x="353.15585"
       y="258.40314">
      <tspan
         id="tspan86"
         sodipodi:role="line"
         y="258.40314"
         x="353.15585 365.41089 378.98587 384.7709 390.48337 401.64084"
         style="font-size:25px;font-variant:normal;font-weight:normal;writing-mode:lr-tb;fill:#000000;fill-opacity:1;fill-rule:nonzero;stroke:none;font-family:Tahoma;-inkscape-font-specification:Tahoma">vollst</tspan>
    </text>
    <text
       style="font-size:15px"
       id="text90"
       x="410.00394"
       y="258.40314">
      <tspan
         id="tspan92"
         sodipodi:role="line"
         y="258.40314"
         x="410.00394 417.5715 425.384 440.23904 453.36148 467.30148 488.29654 496.10904 509.92654 515.6391 526.79651 534.60901 548.63409 562.45148 575.61151 589.55151 602.71149 610.52399 624.34155 633.42401 644.39905"
         style="font-size:25px;font-variant:normal;font-weight:normal;writing-mode:lr-tb;fill:#000000;fill-opacity:1;fill-rule:nonzero;stroke:none;font-family:Tahoma;-inkscape-font-specification:Tahoma">. Baum bis Ebene d-1</tspan>
    </text>
    <path
       inkscape:connector-curvature="0"
       id="path98"
       style="fill:none;stroke:#007879;stroke-width:5.62499905;stroke-linecap:butt;stroke-linejoin:round;stroke-miterlimit:10;stroke-opacity:1;stroke-dasharray:none"
       d="M 135.40352,260.61526 85.597756,277.80392" />
    <path
       d="m 93.479636,266.15789 -13.19925,13.48112 18.70438,2.47063 -5.50513,-15.95175 z"
       style="fill:#007879;fill-opacity:1;fill-rule:evenodd;stroke:none"
       id="path100"
       inkscape:connector-curvature="0" />
    <g
       transform="matrix(1.25,0,0,-1.25,-239.16548,469.46451)"
       id="g478">
      <g
         id="g480"
         clip-path="url(#clipPath482)">
        <g
           id="g486"
           transform="matrix(7.874014e-5,0,0,7.874014e-5,117.5369,95.99418)">
          <path
             inkscape:connector-curvature="0"
             d="M -0.02870597,0.00789268 163180.1,354750"
             style="fill:none;stroke:#007879;stroke-width:25400;stroke-linecap:butt;stroke-linejoin:round;stroke-miterlimit:10;stroke-opacity:1;stroke-dasharray:none"
             id="path488" />
        </g>
        <g
           id="g490"
           transform="matrix(-7.874014e-5,0,0,7.874014e-5,143.6237,95.99418)">
          <path
             inkscape:connector-curvature="0"
             d="M 0.07892105,0.00789268 168122,354750"
             style="fill:none;stroke:#007879;stroke-width:25400;stroke-linecap:butt;stroke-linejoin:round;stroke-miterlimit:10;stroke-opacity:1;stroke-dasharray:none"
             id="path492" />
        </g>
        <path
           inkscape:connector-curvature="0"
           d="m 113.5339,96.28511 c 0,2.57117 1.9246,4.65549 4.2986,4.65549 2.374,0 4.2986,-2.08432 4.2986,-4.65549 0,-2.57117 -1.9246,-4.65551 -4.2986,-4.65551 -2.374,0 -4.2986,2.08434 -4.2986,4.65551 z"
           style="fill:#ffffff;fill-opacity:1;fill-rule:evenodd;stroke:none"
           id="path494" />
        <g
           id="g496"
           transform="matrix(7.874014e-5,0,0,-7.874014e-5,113.5339,100.9406)">
          <path
             inkscape:connector-curvature="0"
             d="M 0.00940463,59125.04 C 0.00940463,26471.21 24441.64,0.04848634 54592.04,0.04848634 84742.33,0.04848634 109184,26471.21 109184,59125.04 109184,91778.86 84742.33,118250 54592.04,118250 24441.64,118250 0.00940463,91778.86 0.00940463,59125.04 z"
             style="fill:none;stroke:#000000;stroke-width:19050;stroke-linecap:butt;stroke-linejoin:round;stroke-miterlimit:10;stroke-opacity:1;stroke-dasharray:none"
             id="path498" />
        </g>
        <path
           inkscape:connector-curvature="0"
           d="m 139.3251,95.99416 c 0,2.57116 1.9245,4.65554 4.2986,4.65554 2.374,0 4.2986,-2.08438 4.2986,-4.65554 0,-2.57117 -1.9246,-4.65551 -4.2986,-4.65551 -2.3741,0 -4.2986,2.08434 -4.2986,4.65551 z"
           style="fill:#ffffff;fill-opacity:1;fill-rule:evenodd;stroke:none"
           id="path500" />
        <g
           id="g502"
           transform="matrix(7.874014e-5,0,0,-7.874014e-5,139.3251,100.6497)">
          <path
             inkscape:connector-curvature="0"
             d="M -0.03513163,59125.03 C -0.03513163,26471.21 24441.69,0.04734562 54591.99,0.04734562 84742.29,0.04734562 109184,26471.21 109184,59125.03 109184,91778.86 84742.29,118250 54591.99,118250 24441.69,118250 -0.03513163,91778.86 -0.03513163,59125.03 z"
             style="fill:none;stroke:#000000;stroke-width:19050;stroke-linecap:butt;stroke-linejoin:round;stroke-miterlimit:10;stroke-opacity:1;stroke-dasharray:none"
             id="path504" />
        </g>
        <g
           id="g506"
           transform="matrix(7.874014e-5,0,0,7.874014e-5,161.0675,95.99418)">
          <path
             inkscape:connector-curvature="0"
             d="M 0.01416999,0.00789268 163180,354750"
             style="fill:none;stroke:#007879;stroke-width:25400;stroke-linecap:butt;stroke-linejoin:round;stroke-miterlimit:10;stroke-opacity:1;stroke-dasharray:none"
             id="path508" />
        </g>
        <path
           inkscape:connector-curvature="0"
           d="m 157.0645,96.28511 c 0,2.57117 1.9246,4.65549 4.2986,4.65549 2.3741,0 4.2986,-2.08432 4.2986,-4.65549 0,-2.57117 -1.9245,-4.65551 -4.2986,-4.65551 -2.374,0 -4.2986,2.08434 -4.2986,4.65551 z"
           style="fill:#ffffff;fill-opacity:1;fill-rule:evenodd;stroke:none"
           id="path510" />
        <g
           id="g512"
           transform="matrix(7.874014e-5,0,0,-7.874014e-5,157.0645,100.9406)">
          <path
             inkscape:connector-curvature="0"
             d="M 0.02417392,59125.04 C 0.02417392,26471.21 24441.75,0.04848634 54592.05,0.04848634 84742.34,0.04848634 109184.1,26471.21 109184.1,59125.04 109184.1,91778.86 84742.34,118250 54592.05,118250 24441.75,118250 0.02417392,91778.86 0.02417392,59125.04 z"
             style="fill:none;stroke:#000000;stroke-width:19050;stroke-linecap:butt;stroke-linejoin:round;stroke-miterlimit:10;stroke-opacity:1;stroke-dasharray:none"
             id="path514" />
        </g>
        <g
           id="g516"
           transform="matrix(7.874014e-5,0,0,7.874014e-5,133.4253,127.2193)">
          <path
             inkscape:connector-curvature="0"
             d="M -0.0312739,-0.06588642 238108.9,372066.9"
             style="fill:none;stroke:#007879;stroke-width:25400;stroke-linecap:butt;stroke-linejoin:round;stroke-miterlimit:10;stroke-opacity:1;stroke-dasharray:none"
             id="path518" />
        </g>
        <g
           id="g520"
           transform="matrix(-7.874014e-5,0,0,7.874014e-5,170.8768,127.2193)">
          <path
             inkscape:connector-curvature="0"
             d="M -0.08813834,-0.06588642 236528.9,372066.9"
             style="fill:none;stroke:#007879;stroke-width:25400;stroke-linecap:butt;stroke-linejoin:round;stroke-miterlimit:10;stroke-opacity:1;stroke-dasharray:none"
             id="path522" />
        </g>
        <path
           inkscape:connector-curvature="0"
           d="m 126.0872,123.9272 c 0,2.5712 1.9246,4.6555 4.2986,4.6555 2.3741,0 4.2986,-2.0843 4.2986,-4.6555 0,-2.5711 -1.9245,-4.6555 -4.2986,-4.6555 -2.374,0 -4.2986,2.0844 -4.2986,4.6555 z"
           style="fill:#ffffff;fill-opacity:1;fill-rule:evenodd;stroke:none"
           id="path524" />
        <g
           id="g526"
           transform="matrix(7.874014e-5,0,0,-7.874014e-5,126.0872,128.5827)">
          <path
             inkscape:connector-curvature="0"
             d="M 0.0274836,59125.02 C 0.0274836,26471.2 24441.66,0.03780228 54591.96,0.03780228 84742.45,0.03780228 109184,26471.2 109184,59125.02 109184,91778.85 84742.45,118250 54591.96,118250 24441.66,118250 0.0274836,91778.85 0.0274836,59125.02 z"
             style="fill:none;stroke:#000000;stroke-width:19050;stroke-linecap:butt;stroke-linejoin:round;stroke-miterlimit:10;stroke-opacity:1;stroke-dasharray:none"
             id="path528" />
        </g>
        <path
           inkscape:connector-curvature="0"
           d="m 169.6179,123.9272 c 0,2.5712 1.9245,4.6555 4.2985,4.6555 2.3741,0 4.2986,-2.0843 4.2986,-4.6555 0,-2.5711 -1.9245,-4.6555 -4.2986,-4.6555 -2.374,0 -4.2985,2.0844 -4.2985,4.6555 z"
           style="fill:#ffffff;fill-opacity:1;fill-rule:evenodd;stroke:none"
           id="path530" />
        <g
           id="g532"
           transform="matrix(7.874014e-5,0,0,-7.874014e-5,169.6179,128.5827)">
          <path
             inkscape:connector-curvature="0"
             d="M -0.1108538,59125.02 C -0.1108538,26471.2 24441.62,0.03780228 54591.91,0.03780228 84742.21,0.03780228 109183.9,26471.2 109183.9,59125.02 109183.9,91778.85 84742.21,118250 54591.91,118250 24441.62,118250 -0.1108538,91778.85 -0.1108538,59125.02 z"
             style="fill:none;stroke:#000000;stroke-width:19050;stroke-linecap:butt;stroke-linejoin:round;stroke-miterlimit:10;stroke-opacity:1;stroke-dasharray:none"
             id="path534" />
        </g>
        <path
           inkscape:connector-curvature="0"
           d="m 147.7511,156.516 c 0,2.5711 1.9245,4.6555 4.2986,4.6555 2.374,0 4.2986,-2.0844 4.2986,-4.6555 0,-2.5712 -1.9246,-4.6555 -4.2986,-4.6555 -2.3741,0 -4.2986,2.0843 -4.2986,4.6555 z"
           style="fill:#ffffff;fill-opacity:1;fill-rule:evenodd;stroke:none"
           id="path536" />
        <g
           id="g538"
           transform="matrix(7.874014e-5,0,0,-7.874014e-5,147.7511,161.1715)">
          <path
             inkscape:connector-curvature="0"
             d="M -0.07757357,59125.18 C -0.07757357,26471.35 24441.65,0.09237745 54591.95,0.09237745 84742.24,0.09237745 109184,26471.35 109184,59125.18 109184,91779 84742.24,118250.1 54591.95,118250.1 24441.65,118250.1 -0.07757357,91779 -0.07757357,59125.18 z"
             style="fill:none;stroke:#000000;stroke-width:19050;stroke-linecap:butt;stroke-linejoin:round;stroke-miterlimit:10;stroke-opacity:1;stroke-dasharray:none"
             id="path540" />
        </g>
        <g
           id="g542"
           transform="matrix(7.874014e-5,0,0,7.874014e-5,219.3643,127.2193)">
          <path
             inkscape:connector-curvature="0"
             d="M -0.1659755,-0.06588642 238108.8,372066.9"
             style="fill:none;stroke:#007879;stroke-width:28575;stroke-linecap:butt;stroke-linejoin:round;stroke-miterlimit:10;stroke-opacity:1;stroke-dasharray:none"
             id="path544" />
        </g>
        <g
           id="g546"
           transform="matrix(-7.874014e-5,0,0,7.874014e-5,256.8158,127.2193)">
          <path
             inkscape:connector-curvature="0"
             d="M 0.1404965,-0.06588642 236529.2,372066.9"
             style="fill:none;stroke:#007879;stroke-width:25400;stroke-linecap:butt;stroke-linejoin:round;stroke-miterlimit:10;stroke-opacity:1;stroke-dasharray:none"
             id="path548" />
        </g>
        <path
           inkscape:connector-curvature="0"
           d="m 212.0261,123.9272 c 0,2.5712 1.9246,4.6555 4.2986,4.6555 2.374,0 4.2986,-2.0843 4.2986,-4.6555 0,-2.5711 -1.9246,-4.6555 -4.2986,-4.6555 -2.374,0 -4.2986,2.0844 -4.2986,4.6555 z"
           style="fill:#ffffff;fill-opacity:1;fill-rule:evenodd;stroke:none"
           id="path550" />
        <g
           id="g552"
           transform="matrix(7.874014e-5,0,0,-7.874014e-5,212.0261,128.5827)">
          <path
             inkscape:connector-curvature="0"
             d="M -0.07319117,59125.02 C -0.07319117,26471.2 24441.66,0.03780228 54591.95,0.03780228 84742.25,0.03780228 109184,26471.2 109184,59125.02 109184,91778.85 84742.25,118250 54591.95,118250 24441.66,118250 -0.07319117,91778.85 -0.07319117,59125.02 z"
             style="fill:none;stroke:#000000;stroke-width:19050;stroke-linecap:butt;stroke-linejoin:round;stroke-miterlimit:10;stroke-opacity:1;stroke-dasharray:none"
             id="path554" />
        </g>
        <path
           inkscape:connector-curvature="0"
           d="m 255.5567,123.9272 c 0,2.5712 1.9246,4.6555 4.2986,4.6555 2.3741,0 4.2986,-2.0843 4.2986,-4.6555 0,-2.5711 -1.9245,-4.6555 -4.2986,-4.6555 -2.374,0 -4.2986,2.0844 -4.2986,4.6555 z"
           style="fill:#ffffff;fill-opacity:1;fill-rule:evenodd;stroke:none"
           id="path556" />
        <g
           id="g558"
           transform="matrix(7.874014e-5,0,0,-7.874014e-5,255.5567,128.5827)">
          <path
             inkscape:connector-curvature="0"
             d="M -0.00220853,59125.02 C -0.00220853,26471.2 24441.53,0.03780228 54592.02,0.03780228 84742.52,0.03780228 109184,26471.2 109184,59125.02 109184,91778.85 84742.52,118250 54592.02,118250 24441.53,118250 -0.00220853,91778.85 -0.00220853,59125.02 z"
             style="fill:none;stroke:#000000;stroke-width:19050;stroke-linecap:butt;stroke-linejoin:round;stroke-miterlimit:10;stroke-opacity:1;stroke-dasharray:none"
             id="path560" />
        </g>
        <path
           inkscape:connector-curvature="0"
           d="m 233.69,156.516 c 0,2.5711 1.9246,4.6555 4.2986,4.6555 2.3741,0 4.2986,-2.0844 4.2986,-4.6555 0,-2.5712 -1.9245,-4.6555 -4.2986,-4.6555 -2.374,0 -4.2986,2.0843 -4.2986,4.6555 z"
           style="fill:#ffffff;fill-opacity:1;fill-rule:evenodd;stroke:none"
           id="path562" />
        <g
           id="g564"
           transform="matrix(7.874014e-5,0,0,-7.874014e-5,233.69,161.1715)">
          <path
             inkscape:connector-curvature="0"
             d="M 0.0687916,59125.18 C 0.0687916,26471.35 24441.8,0.09237745 54592.09,0.09237745 84742.39,0.09237745 109184.1,26471.35 109184.1,59125.18 109184.1,91779 84742.39,118250.1 54592.09,118250.1 24441.8,118250.1 0.0687916,91779 0.0687916,59125.18 z"
             style="fill:none;stroke:#000000;stroke-width:19050;stroke-linecap:butt;stroke-linejoin:round;stroke-miterlimit:10;stroke-opacity:1;stroke-dasharray:none"
             id="path566" />
        </g>
        <path
           inkscape:connector-curvature="0"
           d="m 190.9075,193.7601 c 0,2.5711 1.9246,4.6555 4.2986,4.6555 2.3741,0 4.2986,-2.0844 4.2986,-4.6555 0,-2.5712 -1.9245,-4.6555 -4.2986,-4.6555 -2.374,0 -4.2986,2.0843 -4.2986,4.6555 z"
           style="fill:#ffffff;fill-opacity:1;fill-rule:evenodd;stroke:none"
           id="path568" />
        <g
           id="g570"
           transform="matrix(7.874014e-5,0,0,-7.874014e-5,190.9075,198.4156)">
          <path
             inkscape:connector-curvature="0"
             d="M -0.0302709,59125.22 C -0.0302709,26471.4 24441.7,0.1400574 54592,0.1400574 84742.29,0.1400574 109184,26471.4 109184,59125.22 109184,91779.05 84742.29,118250.1 54592,118250.1 24441.7,118250.1 -0.0302709,91779.05 -0.0302709,59125.22 z"
             style="fill:none;stroke:#000000;stroke-width:19050;stroke-linecap:butt;stroke-linejoin:round;stroke-miterlimit:10;stroke-opacity:1;stroke-dasharray:none"
             id="path572" />
        </g>
        <g
           id="g574"
           transform="matrix(7.874014e-5,0,0,7.874014e-5,155.0892,159.808)">
          <path
             inkscape:connector-curvature="0"
             d="M -0.01429114,-0.06128818 470883.9,389384"
             style="fill:none;stroke:#007879;stroke-width:25400;stroke-linecap:butt;stroke-linejoin:round;stroke-miterlimit:10;stroke-opacity:1;stroke-dasharray:none"
             id="path576" />
        </g>
        <g
           id="g578"
           transform="matrix(-7.874014e-5,0,0,7.874014e-5,233.3945,159.808)">
          <path
             inkscape:connector-curvature="0"
             d="M 0.05348966,-0.06128818 446390.1,389384"
             style="fill:none;stroke:#007879;stroke-width:28575;stroke-linecap:butt;stroke-linejoin:round;stroke-miterlimit:10;stroke-opacity:1;stroke-dasharray:none"
             id="path580" />
        </g>
        <g
           id="g582"
           transform="matrix(-7.874014e-5,0,0,-7.874014e-5,222,99.9163)">
          <path
             inkscape:connector-curvature="0"
             d="M -0.04602045,0.07136099 542324.1,29804.94"
             style="fill:none;stroke:#007879;stroke-width:57150;stroke-linecap:butt;stroke-linejoin:round;stroke-miterlimit:10;stroke-opacity:1;stroke-dasharray:none"
             id="path584" />
        </g>
        <path
           inkscape:connector-curvature="0"
           d="m 187.9133,104.8032 -13.1092,-7.48068 13.85,-5.99902 -0.7408,13.4797 z"
           style="fill:#007879;fill-opacity:1;fill-rule:evenodd;stroke:none"
           id="path586" />
        <g
           id="g588"
           transform="translate(227.6301,111.156)">
          <text
             transform="matrix(1,0,0,-1,0,-20)"
             id="text590">
            <tspan
               style="font-size:20px;font-variant:normal;font-weight:normal;writing-mode:lr-tb;fill:#000000;fill-opacity:1;fill-rule:nonzero;stroke:none;font-family:Tahoma;-inkscape-font-specification:Tahoma"
               x="0 16.796 21.365999 32.518002 43.571999 54.099998 63.026001 69.716003 80.244003 91.396004 100.322 106.572 117.49 123.74 135.498 146.64999 157.50999 164.2 174.728 185.88 192.13 196.7 207.85201 214.10201 225.32201 236.37601 246.90401 258.056 268.58401 274.83401 285.888"
               y="0"
               sodipodi:role="line"
               id="tspan592">mindestens 1 Knoten in Ebene d</tspan>
          </text>
        </g>
      </g>
    </g>
  </g>
</svg>
