<?xml version="1.0" encoding="UTF-8" standalone="no"?>
<!-- Created with Inkscape (http://www.inkscape.org/) -->
<svg xmlns:ns0="http://www.iki.fi/pav/software/textext/" xmlns:dc="http://purl.org/dc/elements/1.1/" xmlns:cc="http://creativecommons.org/ns#" xmlns:rdf="http://www.w3.org/1999/02/22-rdf-syntax-ns#" xmlns:svg="http://www.w3.org/2000/svg" xmlns="http://www.w3.org/2000/svg" xmlns:sodipodi="http://sodipodi.sourceforge.net/DTD/sodipodi-0.dtd" xmlns:inkscape="http://www.inkscape.org/namespaces/inkscape" sodipodi:docname="Neues Dokument 3" inkscape:version="0.48.4 r9939" version="1.1" id="svg5310" height="212.08841" width="560.07581">
  <sodipodi:namedview id="base" pagecolor="#ffffff" bordercolor="#666666" borderopacity="1.0" inkscape:pageopacity="0.0" inkscape:pageshadow="2" inkscape:zoom="1.4050269" inkscape:cx="408.64512" inkscape:cy="-20.821175" inkscape:document-units="px" inkscape:current-layer="layer4" showgrid="false" inkscape:window-width="1211" inkscape:window-height="948" inkscape:window-x="65" inkscape:window-y="24" inkscape:window-maximized="0" fit-margin-top="0" fit-margin-left="0" fit-margin-right="0" fit-margin-bottom="0"/>
  <defs id="defs5312"/>
  <metadata id="metadata5315">
    <rdf:RDF>
      <cc:Work rdf:about="">
        <dc:format>image/svg+xml</dc:format>
        <dc:type rdf:resource="http://purl.org/dc/dcmitype/StillImage"/>
        <dc:title/>
      </cc:Work>
    </rdf:RDF>
  </metadata>
  <g style="display:inline" inkscape:label="o1" inkscape:groupmode="layer" id="layer1" transform="translate(-232.17805,-492.03227)">    <g id="g20" transform="matrix(1.25,0,0,-1.25,457.25851,732.61762)">
      <text id="text408" transform="scale(1,-1)" x="-180.34801" y="-184.341">
        <tspan id="tspan410" sodipodi:role="line" y="-184.341" x="-180.34801 -172.47163 -169.4389 -165.86072 -159.79526 -155.55162 -148.88615 -142.82069 -139.18797 -136.15524 -130.25342 -124.18796 -116.50795 -108.63158 -101.96612 -95.900658 -92.867928 -86.966103 -80.900642 -71.802452 -68.169716 -61.504272 -52.406067 -44.529701 -37.86425 -31.198784 -25.133324" style="font-size:10.90909958px;font-variant:normal;font-weight:bold;writing-mode:lr-tb;fill:#000000;fill-opacity:1;fill-rule:nonzero;stroke:none;font-family:TeX Gyre Heros;-inkscape-font-specification:TeXGyreHeros-Bold">Alternative:AnalysetheCode:</tspan>
      </text>
      <text id="text412" transform="scale(1,-1)" x="-179.327" y="-166.409">
        <tspan id="tspan414" sodipodi:role="line" y="-166.409" x="-179.327 -172.76164 -166.20625" style="font-size:9.96259975px;font-variant:normal;font-weight:normal;writing-mode:lr-tb;fill:#ff8000;fill-opacity:1;fill-rule:nonzero;stroke:none;font-family:TeX Gyre Heros;-inkscape-font-specification:TeXGyreHeros-Regular">def</tspan>
        <tspan id="tspan416" sodipodi:role="line" y="-166.409" x="-155.28725 -145.8427 -142.48531 -135.79044 -129.66344 -122.97854 -118.51529" style="font-size:9.96259975px;font-variant:normal;font-weight:normal;writing-mode:lr-tb;fill:#0000ff;fill-opacity:1;fill-rule:nonzero;stroke:none;font-family:TeX Gyre Heros;-inkscape-font-specification:TeXGyreHeros-Regular">minsort</tspan>
        <tspan id="tspan418" sodipodi:role="line" y="-166.409" x="-113.265 -107.79553 -101.42944 -98.400803 -92.034698 -82.918922 -76.552811 -70.186722 -66.600182 -59.466961 -53.210453" style="font-size:9.96259975px;font-variant:normal;font-weight:normal;writing-mode:lr-tb;fill:#000000;fill-opacity:1;fill-rule:nonzero;stroke:none;font-family:TeX Gyre Heros;-inkscape-font-specification:TeXGyreHeros-Regular">(elements):</tspan>
        <tspan id="tspan420" sodipodi:role="line" y="-154.45399" x="-154.86101 -150.5173 -143.39404" style="font-size:9.96259975px;font-variant:normal;font-weight:normal;writing-mode:lr-tb;fill:#ff8000;fill-opacity:1;fill-rule:nonzero;stroke:none;font-family:TeX Gyre Heros;-inkscape-font-specification:TeXGyreHeros-Regular">for</tspan>
        <tspan id="tspan422" y="-154.45399" x="-130.64192" style="font-size:9.96259975px;font-variant:normal;font-weight:normal;writing-mode:lr-tb;fill:#000000;fill-opacity:1;fill-rule:nonzero;stroke:none;font-family:TeX Gyre Heros;-inkscape-font-specification:TeXGyreHeros-Regular">i</tspan>
        <tspan id="tspan424" sodipodi:role="line" y="-154.45399" x="-119.16501 -115.55855" style="font-size:9.96259975px;font-variant:normal;font-weight:normal;writing-mode:lr-tb;fill:#ff8000;fill-opacity:1;fill-rule:nonzero;stroke:none;font-family:TeX Gyre Heros;-inkscape-font-specification:TeXGyreHeros-Regular">in</tspan>
        <tspan id="tspan426" sodipodi:role="line" y="-154.45399" x="-101.89982 -97.845047 -91.578568 -85.302132 -79.025696" style="font-size:9.96259975px;font-variant:normal;font-weight:normal;writing-mode:lr-tb;fill:#990099;fill-opacity:1;fill-rule:nonzero;stroke:none;font-family:TeX Gyre Heros;-inkscape-font-specification:TeXGyreHeros-Regular">range</tspan>
        <tspan id="tspan428" sodipodi:role="line" y="-154.45399" x="-71.493965 -66.911171 -58.851421" style="font-size:9.96259975px;font-variant:normal;font-weight:normal;writing-mode:lr-tb;fill:#000000;fill-opacity:1;fill-rule:nonzero;stroke:none;font-family:TeX Gyre Heros;-inkscape-font-specification:TeXGyreHeros-Regular">(0,</tspan>
        <tspan id="tspan430" sodipodi:role="line" y="-154.45399" x="-47.683353 -44.306034 -37.611164" style="font-size:9.96259975px;font-variant:normal;font-weight:normal;writing-mode:lr-tb;fill:#990099;fill-opacity:1;fill-rule:nonzero;stroke:none;font-family:TeX Gyre Heros;-inkscape-font-specification:TeXGyreHeros-Regular">len</tspan>
        <tspan id="tspan432" sodipodi:role="line" y="-154.45399" x="-29.581303 -24.111835 -17.745731 -14.707142 -8.3510017 0.77473032 7.1308703 13.496975 17.083508 24.216732" style="font-size:9.96259975px;font-variant:normal;font-weight:normal;writing-mode:lr-tb;fill:#000000;fill-opacity:1;fill-rule:nonzero;stroke:none;font-family:TeX Gyre Heros;-inkscape-font-specification:TeXGyreHeros-Regular">(elements)</tspan>
      </text>
      <text id="text434" transform="scale(1,-1)" x="29.403999" y="-154.45399">
        <tspan id="tspan436" y="-154.45399" x="29.403999" style="font-size:9.96259975px;font-variant:normal;font-weight:normal;writing-mode:lr-tb;fill:#000000;fill-opacity:1;fill-rule:nonzero;stroke:none;font-family:CMSY10;-inkscape-font-specification:CMSY10">−</tspan>
      </text>
      <text id="text438" transform="scale(1,-1)" x="37.411999" y="-154.45399">
        <tspan id="tspan440" sodipodi:role="line" y="-154.45399" x="37.411999 43.220196 48.410709" style="font-size:9.96259975px;font-variant:normal;font-weight:normal;writing-mode:lr-tb;fill:#000000;fill-opacity:1;fill-rule:nonzero;stroke:none;font-family:TeX Gyre Heros;-inkscape-font-specification:TeXGyreHeros-Regular">1):</tspan>
        <tspan id="tspan442" sodipodi:role="line" y="-142.498" x="-132.34599 -123.86783 -121.47681 -115.75827 -113.35728 -104.8791 -99.160583 -84.625145 -70.866791" style="font-size:9.96259975px;font-variant:normal;font-weight:normal;writing-mode:lr-tb;fill:#000000;fill-opacity:1;fill-rule:nonzero;stroke:none;font-family:TeX Gyre Heros;-inkscape-font-specification:TeXGyreHeros-Regular">minimum=i</tspan>
        <tspan id="tspan444" sodipodi:role="line" y="-118.588" x="-130.95 -126.60631 -119.48305" style="font-size:9.96259975px;font-variant:normal;font-weight:normal;writing-mode:lr-tb;fill:#ff8000;fill-opacity:1;fill-rule:nonzero;stroke:none;font-family:TeX Gyre Heros;-inkscape-font-specification:TeXGyreHeros-Regular">for</tspan>
        <tspan id="tspan446" y="-118.588" x="-106.73091" style="font-size:9.96259975px;font-variant:normal;font-weight:normal;writing-mode:lr-tb;fill:#000000;fill-opacity:1;fill-rule:nonzero;stroke:none;font-family:TeX Gyre Heros;-inkscape-font-specification:TeXGyreHeros-Regular">j</tspan>
        <tspan id="tspan448" sodipodi:role="line" y="-118.588" x="-95.263962 -91.647537" style="font-size:9.96259975px;font-variant:normal;font-weight:normal;writing-mode:lr-tb;fill:#ff8000;fill-opacity:1;fill-rule:nonzero;stroke:none;font-family:TeX Gyre Heros;-inkscape-font-specification:TeXGyreHeros-Regular">in</tspan>
        <tspan id="tspan450" sodipodi:role="line" y="-118.588" x="-77.988815 -73.944 -67.667564 -61.391125 -55.114689" style="font-size:9.96259975px;font-variant:normal;font-weight:normal;writing-mode:lr-tb;fill:#990099;fill-opacity:1;fill-rule:nonzero;stroke:none;font-family:TeX Gyre Heros;-inkscape-font-specification:TeXGyreHeros-Regular">range</tspan>
        <tspan id="tspan452" sodipodi:role="line" y="-118.588" x="-47.513226 -40.977764 -36.125973 -29.540697 -22.487173" style="font-size:9.96259975px;font-variant:normal;font-weight:normal;writing-mode:lr-tb;fill:#000000;fill-opacity:1;fill-rule:nonzero;stroke:none;font-family:TeX Gyre Heros;-inkscape-font-specification:TeXGyreHeros-Regular">(i+1,</tspan>
        <tspan id="tspan454" sodipodi:role="line" y="-118.588" x="-11.817229 -8.4399099 -1.7450397" style="font-size:9.96259975px;font-variant:normal;font-weight:normal;writing-mode:lr-tb;fill:#990099;fill-opacity:1;fill-rule:nonzero;stroke:none;font-family:TeX Gyre Heros;-inkscape-font-specification:TeXGyreHeros-Regular">len</tspan>
        <tspan id="tspan456" sodipodi:role="line" y="-118.588" x="6.2848144 11.754283 18.120384 21.158978 27.515116 36.640858 42.996998 49.363098 52.949635 60.082855 66.060417 72.316925" style="font-size:9.96259975px;font-variant:normal;font-weight:normal;writing-mode:lr-tb;fill:#000000;fill-opacity:1;fill-rule:nonzero;stroke:none;font-family:TeX Gyre Heros;-inkscape-font-specification:TeXGyreHeros-Regular">(elements)):</tspan>
        <tspan id="tspan458" sodipodi:role="line" y="-106.633" x="-106.291 -101.75801" style="font-size:9.96259975px;font-variant:normal;font-weight:normal;writing-mode:lr-tb;fill:#ff8000;fill-opacity:1;fill-rule:nonzero;stroke:none;font-family:TeX Gyre Heros;-inkscape-font-specification:TeXGyreHeros-Regular">if</tspan>
        <tspan id="tspan460" sodipodi:role="line" y="-106.633" x="-89.862671 -83.496567 -80.467934 -74.101837 -64.986061 -58.619961 -52.253857 -48.667324 -41.255146 -34.998638 -29.300028 -18.84926 -6.1768327 0.18926746 3.2179005 9.5840006 18.709743 25.065882 31.431982 35.01852 42.430695 46.983601 55.461773 57.852798 63.571331 65.962357 74.450493 80.169022 90.789154 95.69075" style="font-size:9.96259975px;font-variant:normal;font-weight:normal;writing-mode:lr-tb;fill:#000000;fill-opacity:1;fill-rule:nonzero;stroke:none;font-family:TeX Gyre Heros;-inkscape-font-specification:TeXGyreHeros-Regular">elements[j]&lt;elements[minimum]:</tspan>
        <tspan id="tspan462" sodipodi:role="line" y="-94.678001" x="-84.524994 -76.046814 -73.6558 -67.937271 -65.536285 -57.058109 -51.339581 -36.80415 -23.045794" style="font-size:9.96259975px;font-variant:normal;font-weight:normal;writing-mode:lr-tb;fill:#000000;fill-opacity:1;fill-rule:nonzero;stroke:none;font-family:TeX Gyre Heros;-inkscape-font-specification:TeXGyreHeros-Regular">minimum=j</tspan>
        <tspan id="tspan464" sodipodi:role="line" y="-70.767006" x="-130.202 -125.66902" style="font-size:9.96259975px;font-variant:normal;font-weight:normal;writing-mode:lr-tb;fill:#ff8000;fill-opacity:1;fill-rule:nonzero;stroke:none;font-family:TeX Gyre Heros;-inkscape-font-specification:TeXGyreHeros-Regular">if</tspan>
        <tspan id="tspan466" sodipodi:role="line" y="-70.767006" x="-114.41127 -105.93311 -103.54208 -97.823547 -95.432526 -86.954361 -81.225861 -65.654305 -61.758938 -46.954517 -41.255909" style="font-size:9.96259975px;font-variant:normal;font-weight:normal;writing-mode:lr-tb;fill:#000000;fill-opacity:1;fill-rule:nonzero;stroke:none;font-family:TeX Gyre Heros;-inkscape-font-specification:TeXGyreHeros-Regular">minimum!=i:</tspan>
        <tspan id="tspan468" sodipodi:role="line" y="-58.812" x="-107.79399 -101.4279 -98.399261 -92.033157 -82.917389 -76.551285 -70.195145 -66.598648 -59.186474 -52.929966 -47.231358 -41.253796 -30.085718 -23.719618 -20.690989 -14.324885 -5.2091088 1.1569951 7.5230956 11.109632 18.521807 23.074715 31.552887 33.943909 39.662441 42.053467 50.531639 56.260136 66.342285 76.773125 90.252525" style="font-size:9.96259975px;font-variant:normal;font-weight:normal;writing-mode:lr-tb;fill:#000000;fill-opacity:1;fill-rule:nonzero;stroke:none;font-family:TeX Gyre Heros;-inkscape-font-specification:TeXGyreHeros-Regular">elements[i],elements[minimum]=\</tspan>
        <tspan id="tspan470" sodipodi:role="line" y="-46.856998" x="-83.882996 -77.516899 -74.488266 -68.122154 -59.00639 -52.640285 -46.284145 -42.687649 -35.275478 -30.722567 -22.244394 -19.853369 -14.134837 -11.743815 -3.2656391 2.4528897 12.545005 18.522566 29.690639 36.05674 39.085373 45.451473 54.567253 60.933353 67.299454 70.885994 78.298164 84.55468 90.253288" style="font-size:9.96259975px;font-variant:normal;font-weight:normal;writing-mode:lr-tb;fill:#000000;fill-opacity:1;fill-rule:nonzero;stroke:none;font-family:TeX Gyre Heros;-inkscape-font-specification:TeXGyreHeros-Regular">elements[minimum],elements[i]</tspan>
        <tspan id="tspan472" sodipodi:role="line" y="-22.946997" x="-155.03099 -150.30873 -143.36479 -139.19046 -132.23657 -127.5143" style="font-size:9.96259975px;font-variant:normal;font-weight:normal;writing-mode:lr-tb;fill:#ff8000;fill-opacity:1;fill-rule:nonzero;stroke:none;font-family:TeX Gyre Heros;-inkscape-font-specification:TeXGyreHeros-Regular">return</tspan>
        <tspan id="tspan474" sodipodi:role="line" y="-22.946997" x="-113.77586 -107.40977 -104.37117 -98.015045 -88.889297 -82.533157 -76.167061 -72.580521" style="font-size:9.96259975px;font-variant:normal;font-weight:normal;writing-mode:lr-tb;fill:#000000;fill-opacity:1;fill-rule:nonzero;stroke:none;font-family:TeX Gyre Heros;-inkscape-font-specification:TeXGyreHeros-Regular">elements</tspan>
      </text>
    </g>
  </g>
  <g inkscape:groupmode="layer" id="layer2" style="display:none" inkscape:label="o2" transform="translate(-232.17805,-492.03227)">    <rect style="opacity:0.26000001;color:#000000;fill:#008080;fill-opacity:1;fill-rule:nonzero;stroke:none;stroke-width:0.17925029;marker:none;visibility:visible;display:inline;overflow:visible;enable-background:accumulate" id="rect5393" width="305.00003" height="55.714302" x="287.85715" y="629.50507"/>
    <g ns0:preamble="/home/backofen/TeX/Macros/Preamble/inkscape-std-packages.sty" ns0:text="$\\left.\\rule{0pt}{1cm}\\right\\}$" word-spacing="normal" letter-spacing="normal" font-size-adjust="none" font-stretch="normal" font-weight="normal" font-variant="normal" font-style="normal" stroke-miterlimit="10.433" xml:space="preserve" transform="matrix(1,0,0,-1,370.94275,1117.9645)" id="content" style="font-style:normal;font-variant:normal;font-weight:normal;font-stretch:normal;letter-spacing:normal;word-spacing:normal;text-anchor:start;fill:none;stroke:#000000;stroke-linecap:butt;stroke-linejoin:miter;stroke-miterlimit:10.43299961;stroke-opacity:1;stroke-dasharray:none;stroke-dashoffset:0"><path id="path5703" d="m 228.45,476.48 0,-0.01 0,-0.01 0,-0.01 0,-0.01 0,-0.02 0,-0.01 0,-0.01 0,0 0,-0.01 0,-0.01 0,-0.01 0,-0.01 0,-0.01 0,-0.01 0,0 0,-0.01 0.01,-0.01 0,0 0,-0.01 0,-0.01 0,-0.01 0.01,-0.01 0,-0.01 0.01,-0.01 0,0 0.01,-0.01 0,-0.01 0.01,0 0.01,-0.01 0.01,0 0.01,0 0.01,-0.01 0,0 0.01,0 0.01,0 0,0 0.01,0 0.01,0 0.01,0 0,0 0.01,0 0.01,0 0.01,-0.01 0.01,0 0.01,0 0.01,0 0.01,0 0.01,0 0.01,0 0.01,0 0.01,0 0.01,0 0.02,0 h 0.63 c 0.27,0 0.28,0.01 0.28,0.27 v 4.27 c 0,1.46 -0.76,3.34 -2.9,4.49 h -0.15 c -0.26,0 -0.27,-0.01 -0.27,-0.23 0,-0.18 0.01,-0.19 0.05,-0.22 0.31,-0.23 1.02,-0.74 1.49,-1.65 0.27,-0.54 0.59,-1.31 0.59,-2.39 z" inkscape:connector-curvature="0" style="fill:#000000;stroke-width:0"/><path id="path5705" d="m 229.64,476.12 0,0.01 0,0.01 0,0.01 0,0.01 0,0.01 0,0.01 0,0.01 0,0.01 0,0.01 0,0.01 0,0.01 0,0.01 0,0.01 0,0 0,0.01 0,0.01 0,0 -0.01,0.01 0,0.01 0,0 0,0.01 -0.01,0.02 0,0 0,0.01 -0.01,0.01 -0.01,0.01 0,0 -0.01,0.01 -0.01,0 -0.01,0.01 -0.01,0 -0.01,0 0,0 -0.01,0.01 -0.01,0 0,0 -0.01,0 -0.01,0 0,0 -0.01,0 -0.01,0 -0.01,0 -0.01,0 -0.01,0 -0.01,0 -0.01,0 -0.01,0 -0.01,0 -0.01,0 -0.01,0 -0.01,0 -0.01,0.01 -0.02,0 h -0.63 c -0.27,0 -0.28,-0.01 -0.28,-0.27 v -2.64 c 0,-0.26 0.01,-0.27 0.28,-0.27 h 0.63 c 0.27,0 0.28,0.01 0.28,0.27 z" inkscape:connector-curvature="0" style="fill:#000000;stroke-width:0"/><path id="path5707" d="m 229.64,473.13 0,0.01 0,0.01 0,0.01 0,0.01 0,0.02 0,0.01 0,0.01 0,0 0,0.01 0,0.01 0,0.01 0,0.01 0,0.01 0,0.01 0,0 0,0.01 0,0.01 -0.01,0 0,0.01 0,0.01 0,0.01 -0.01,0.01 0,0.01 0,0.01 -0.01,0 -0.01,0.01 0,0.01 -0.01,0 -0.01,0.01 -0.01,0 -0.01,0 -0.01,0.01 0,0 -0.01,0 -0.01,0 0,0 -0.01,0 -0.01,0 0,0 -0.01,0 -0.01,0 -0.01,0 -0.01,0.01 -0.01,0 -0.01,0 -0.01,0 -0.01,0 -0.01,0 -0.01,0 -0.01,0 -0.01,0 -0.01,0 -0.02,0 h -0.63 c -0.27,0 -0.28,-0.01 -0.28,-0.27 v -2.64 c 0,-0.26 0.01,-0.27 0.28,-0.27 h 0.63 c 0.27,0 0.28,0.01 0.28,0.27 z" inkscape:connector-curvature="0" style="fill:#000000;stroke-width:0"/><path id="path5709" d="m 229.64,456.8 0,0.08 0,0.09 0.01,0.09 0,0.11 0.01,0.1 0.01,0.12 0.01,0.11 0.02,0.13 0.02,0.12 0.02,0.13 0.03,0.14 0.03,0.14 0.03,0.14 0.04,0.14 0.04,0.15 0.05,0.15 0.05,0.15 0.06,0.15 0.07,0.15 0.07,0.15 0.08,0.15 0.08,0.16 0.1,0.15 0.1,0.15 0.1,0.15 0.12,0.15 0.12,0.15 0.13,0.14 0.14,0.14 0.15,0.14 0.16,0.14 0.16,0.13 c 0.11,0.09 0.12,0.1 0.12,0.28 0,0.18 -0.01,0.19 -0.12,0.28 -0.26,0.2 -0.94,0.72 -1.42,1.73 -0.39,0.79 -0.59,1.67 -0.59,2.56 v 4.2 c 0,0.26 -0.01,0.27 -0.28,0.27 h -0.63 c -0.27,0 -0.28,-0.01 -0.28,-0.27 v -4.19 c 0,-1.2 0.51,-3.23 2.73,-4.58 -2.24,-1.36 -2.73,-3.41 -2.73,-4.58 v -4.19 c 0,-0.26 0.01,-0.27 0.28,-0.27 h 0.63 c 0.27,0 0.28,0.01 0.28,0.27 z" inkscape:connector-curvature="0" style="fill:#000000;stroke-width:0"/><path id="path5711" d="m 229.64,452.21 0,0.01 0,0.01 0,0.01 0,0.01 0,0.01 0,0.01 0,0.01 0,0.01 0,0.01 0,0.01 0,0.01 0,0.01 0,0.01 0,0 0,0.01 0,0.01 0,0 -0.01,0.01 0,0.01 0,0 0,0.01 -0.01,0.02 0,0 0,0.01 -0.01,0.01 -0.01,0.01 0,0 -0.01,0.01 -0.01,0 -0.01,0.01 -0.01,0 -0.01,0 0,0 -0.01,0.01 -0.01,0 0,0 -0.01,0 -0.01,0 0,0 -0.01,0 -0.01,0 -0.01,0 -0.01,0 -0.01,0 -0.01,0 -0.01,0 -0.01,0 -0.01,0 -0.01,0 -0.01,0 -0.01,0 -0.01,0 -0.02,0.01 h -0.63 c -0.27,0 -0.28,-0.02 -0.28,-0.27 v -2.64 c 0,-0.26 0.01,-0.27 0.28,-0.27 h 0.63 c 0.27,0 0.28,0.01 0.28,0.27 z" inkscape:connector-curvature="0" style="fill:#000000;stroke-width:0"/><path id="path5713" d="m 229.64,449.22 0,0.01 0,0.01 0,0.01 0,0.01 0,0.01 0,0.01 0,0.01 0,0.01 0,0.01 0,0.01 0,0.01 0,0.01 0,0.01 0,0 0,0.01 0,0.01 0,0.01 -0.01,0 0,0.01 0,0 0,0.02 -0.01,0.01 0,0.01 0,0 -0.01,0.01 -0.01,0.01 0,0 -0.01,0.01 -0.01,0.01 -0.01,0 -0.01,0 -0.01,0 0,0.01 -0.01,0 -0.01,0 0,0 -0.01,0 -0.01,0 0,0 -0.01,0 -0.01,0 -0.01,0 -0.01,0 -0.01,0 -0.01,0.01 -0.01,0 -0.01,0 -0.01,0 -0.01,0 -0.01,0 -0.01,0 -0.01,0 -0.02,0 h -0.63 c -0.27,0 -0.28,-0.01 -0.28,-0.27 v -2.64 c 0,-0.26 0.01,-0.27 0.28,-0.27 h 0.63 c 0.27,0 0.28,0.01 0.28,0.27 z" inkscape:connector-curvature="0" style="fill:#000000;stroke-width:0"/><path id="path5715" d="m 228.45,441.96 0,-0.09 0,-0.09 -0.01,-0.09 0,-0.1 -0.01,-0.11 -0.01,-0.1 -0.02,-0.12 -0.02,-0.11 -0.02,-0.12 -0.02,-0.13 -0.03,-0.12 -0.03,-0.13 -0.03,-0.13 -0.04,-0.14 -0.05,-0.13 -0.05,-0.14 -0.05,-0.13 -0.06,-0.14 -0.07,-0.14 -0.07,-0.14 -0.08,-0.14 -0.08,-0.13 -0.09,-0.14 -0.1,-0.14 -0.11,-0.13 -0.11,-0.14 -0.12,-0.13 -0.12,-0.13 -0.14,-0.12 -0.14,-0.13 -0.15,-0.12 -0.16,-0.12 c -0.13,-0.1 -0.14,-0.1 -0.14,-0.28 0,-0.23 0.01,-0.24 0.27,-0.24 h 0.15 c 2.15,1.15 2.9,3.03 2.9,4.49 v 4.27 c 0,0.26 -0.01,0.27 -0.28,0.27 h -0.63 c -0.27,0 -0.28,-0.01 -0.28,-0.27 z" inkscape:connector-curvature="0" style="fill:#000000;stroke-width:0"/></g>    <text xml:space="preserve" style="font-size:18px;font-style:normal;font-variant:normal;font-weight:normal;font-stretch:normal;text-align:start;line-height:125%;letter-spacing:0px;word-spacing:0px;text-anchor:start;fill:#000000;fill-opacity:1;stroke:none;font-family:Arial;-inkscape-font-specification:Sans" x="613.91693" y="652.06366" id="text5764" sodipodi:linespacing="125%"><tspan sodipodi:role="line" id="tspan5766" x="613.91693" y="652.06366">const. </tspan><tspan sodipodi:role="line" x="613.91693" y="674.56366" id="tspan5839">runtime</tspan></text>
  </g>
  <g inkscape:groupmode="layer" id="layer3" style="display:none" inkscape:label="o3" transform="translate(-232.17805,-492.03227)">    <rect style="opacity:0.26000001;color:#000000;fill:#008080;fill-opacity:1;fill-rule:nonzero;stroke:none;stroke-width:0.17925029;marker:none;visibility:visible;display:inline;overflow:visible;enable-background:accumulate" id="rect5393-7" width="315.67599" height="118.34654" x="287.85715" y="569.50507"/>
    <text xml:space="preserve" style="font-size:18px;font-style:normal;font-variant:normal;font-weight:normal;font-stretch:normal;text-align:start;line-height:125%;letter-spacing:0px;word-spacing:0px;text-anchor:start;fill:#000000;fill-opacity:1;stroke:none;font-family:Arial;-inkscape-font-specification:Sans" x="687.91693" y="626.06366" id="text5764-9" sodipodi:linespacing="125%"><tspan sodipodi:role="line" id="tspan5766-6" x="687.91693" y="626.06366">n-i-1 </tspan><tspan sodipodi:role="line" x="687.91693" y="648.56366" id="tspan5839-1">times</tspan></text>
    <g id="g5934" transform="matrix(1.4605403,0,0,-1.4605403,343.45836,1282.4372)" xml:space="preserve" stroke-miterlimit="10.433" font-style="normal" font-variant="normal" font-weight="normal" font-stretch="normal" font-size-adjust="none" letter-spacing="normal" word-spacing="normal" ns0:text="$\\left.\\rule{0pt}{1.5cm}\\right\\}$" ns0:preamble="/home/backofen/TeX/Macros/Preamble/inkscape-std-packages.sty" style="font-style:normal;font-variant:normal;font-weight:normal;font-stretch:normal;letter-spacing:normal;word-spacing:normal;text-anchor:start;fill:none;stroke:#000000;stroke-linecap:butt;stroke-linejoin:miter;stroke-miterlimit:10.43299961;stroke-opacity:1;stroke-dasharray:none;stroke-dashoffset:0"><path style="fill:#000000;stroke-width:0" inkscape:connector-curvature="0" d="m 228.45,477.25 0,-0.01 0,-0.01 0,-0.01 0,-0.01 0,-0.01 0,-0.01 0,-0.01 0,-0.01 0,-0.01 0,-0.01 0,-0.01 0,-0.01 0,-0.01 0,0 0,-0.01 0,-0.01 0.01,-0.01 0,0 0,-0.01 0,0 0,-0.02 0.01,-0.01 0,-0.01 0.01,0 0,-0.01 0.01,-0.01 0,0 0.01,-0.01 0.01,-0.01 0.01,0 0.01,0 0.01,0 0,-0.01 0.01,0 0.01,0 0,0 0.01,0 0.01,0 0.01,0 0,0 0.01,0 0.01,0 0.01,0 0.01,0 0.01,-0.01 0.01,0 0.01,0 0.01,0 0.01,0 0.01,0 0.01,0 0.01,0 0.02,0 h 0.63 c 0.27,0 0.28,0.01 0.28,0.27 v 4.27 c 0,1.46 -0.76,3.34 -2.9,4.49 h -0.15 c -0.26,0 -0.27,-0.01 -0.27,-0.23 0,-0.18 0.01,-0.19 0.05,-0.22 0.31,-0.23 1.02,-0.74 1.49,-1.65 0.27,-0.54 0.59,-1.31 0.59,-2.39 z" id="path5936"/><path style="fill:#000000;stroke-width:0" inkscape:connector-curvature="0" d="m 229.64,476.89 0,0.01 0,0.01 0,0.01 0,0.01 0,0.01 0,0.01 0,0.01 0,0.01 0,0.01 0,0.01 0,0.01 0,0.01 0,0.01 0,0 0,0.01 0,0.01 0,0.01 -0.01,0 0,0.01 0,0 0,0.02 -0.01,0.01 0,0.01 0,0 -0.01,0.01 -0.01,0.01 0,0 -0.01,0.01 -0.01,0.01 -0.01,0 -0.01,0 -0.01,0 0,0.01 -0.01,0 -0.01,0 0,0 -0.01,0 -0.01,0 0,0 -0.01,0 -0.01,0 -0.01,0 -0.01,0 -0.01,0 -0.01,0.01 -0.01,0 -0.01,0 -0.01,0 -0.01,0 -0.01,0 -0.01,0 -0.01,0 -0.02,0 h -0.63 c -0.27,0 -0.28,-0.01 -0.28,-0.27 v -2.64 c 0,-0.26 0.01,-0.27 0.28,-0.27 h 0.63 c 0.27,0 0.28,0.01 0.28,0.27 z" id="path5938"/><path style="fill:#000000;stroke-width:0" inkscape:connector-curvature="0" d="m 229.64,473.9 0,0.01 0,0.01 0,0.01 0,0.01 0,0.02 0,0.01 0,0.01 0,0 0,0.01 0,0.01 0,0.01 0,0.01 0,0.01 0,0.01 0,0 0,0.01 0,0.01 -0.01,0 0,0.01 0,0.01 0,0.01 -0.01,0.01 0,0.01 0,0.01 -0.01,0 -0.01,0.01 0,0.01 -0.01,0 -0.01,0.01 -0.01,0 -0.01,0 -0.01,0.01 0,0 -0.01,0 -0.01,0 0,0 -0.01,0 -0.01,0 0,0 -0.01,0 -0.01,0 -0.01,0 -0.01,0.01 -0.01,0 -0.01,0 -0.01,0 -0.01,0 -0.01,0 -0.01,0 -0.01,0 -0.01,0 -0.01,0 -0.02,0 h -0.63 c -0.27,0 -0.28,-0.01 -0.28,-0.27 v -2.64 c 0,-0.26 0.01,-0.27 0.28,-0.27 h 0.63 c 0.27,0 0.28,0.01 0.28,0.27 z" id="path5940"/><path style="fill:#000000;stroke-width:0" inkscape:connector-curvature="0" d="m 229.64,470.91 0,0.01 0,0.01 0,0.02 0,0.01 0,0.01 0,0.01 0,0.01 0,0.01 0,0.01 0,0 0,0.01 0,0.01 0,0.01 0,0.01 0,0 0,0.01 0,0.01 -0.01,0.01 0,0 0,0.01 0,0.01 -0.01,0.01 0,0.01 0,0.01 -0.01,0 -0.01,0.01 0,0.01 -0.01,0 -0.01,0.01 -0.01,0 -0.01,0.01 -0.01,0 0,0 -0.01,0 -0.01,0 0,0 -0.01,0 -0.01,0 0,0.01 -0.01,0 -0.01,0 -0.01,0 -0.01,0 -0.01,0 -0.01,0 -0.01,0 -0.01,0 -0.01,0 -0.01,0 -0.01,0 -0.01,0 -0.01,0 -0.02,0 h -0.63 c -0.27,0 -0.28,-0.01 -0.28,-0.27 v -2.64 c 0,-0.26 0.01,-0.27 0.28,-0.27 h 0.63 c 0.27,0 0.28,0.01 0.28,0.27 z" id="path5942"/><path style="fill:#000000;stroke-width:0" inkscape:connector-curvature="0" d="m 229.64,467.92 0,0.01 0,0.02 0,0.01 0,0.01 0,0.01 0,0.01 0,0.01 0,0.01 0,0.01 0,0.01 0,0 0,0.01 0,0.01 0,0.01 0,0.01 0,0 0,0.01 -0.01,0.01 0,0 0,0.01 0,0.01 -0.01,0.01 0,0.01 0,0.01 -0.01,0.01 -0.01,0 0,0.01 -0.01,0 -0.01,0.01 -0.01,0 -0.01,0.01 -0.01,0 0,0 -0.01,0 -0.01,0 0,0 -0.01,0 -0.01,0.01 0,0 -0.01,0 -0.01,0 -0.01,0 -0.01,0 -0.01,0 -0.01,0 -0.01,0 -0.01,0 -0.01,0 -0.01,0 -0.01,0 -0.01,0 -0.01,0 -0.02,0 h -0.63 c -0.27,0 -0.28,-0.01 -0.28,-0.27 v -2.64 c 0,-0.26 0.01,-0.27 0.28,-0.27 h 0.63 c 0.27,0 0.28,0.01 0.28,0.27 z" id="path5944"/><path style="fill:#000000;stroke-width:0" inkscape:connector-curvature="0" d="m 229.64,464.93 0,0.01 0,0.02 0,0.01 0,0.01 0,0.01 0,0.01 0,0.01 0,0.01 0,0.01 0,0.01 0,0.01 0,0 0,0.01 0,0.01 0,0.01 0,0 0,0.01 -0.01,0.01 0,0 0,0.01 0,0.01 -0.01,0.01 0,0.01 0,0.01 -0.01,0.01 -0.01,0 0,0.01 -0.01,0.01 -0.01,0 -0.01,0 -0.01,0.01 -0.01,0 0,0 -0.01,0 -0.01,0 0,0 -0.01,0.01 -0.01,0 0,0 -0.01,0 -0.01,0 -0.01,0 -0.01,0 -0.01,0 -0.01,0 -0.01,0 -0.01,0 -0.01,0 -0.01,0 -0.01,0 -0.01,0 -0.01,0 -0.02,0 h -0.63 c -0.27,0 -0.28,-0.01 -0.28,-0.27 v -2.64 c 0,-0.26 0.01,-0.27 0.28,-0.27 h 0.63 c 0.27,0 0.28,0.01 0.28,0.27 z" id="path5946"/><path style="fill:#000000;stroke-width:0" inkscape:connector-curvature="0" d="m 229.64,461.94 0,0.02 0,0.01 0,0.01 0,0.01 0,0.01 0,0.01 0,0.01 0,0.01 0,0.01 0,0.01 0,0.01 0,0 0,0.01 0,0.01 0,0.01 0,0 0,0.01 -0.01,0.01 0,0 0,0.01 0,0.01 -0.01,0.01 0,0.01 0,0.01 -0.01,0.01 -0.01,0 0,0.01 -0.01,0.01 -0.01,0 -0.01,0.01 -0.01,0 -0.01,0 0,0 -0.01,0 -0.01,0 0,0.01 -0.01,0 -0.01,0 0,0 -0.01,0 -0.01,0 -0.01,0 -0.01,0 -0.01,0 -0.01,0 -0.01,0 -0.01,0 -0.01,0 -0.01,0 -0.01,0 -0.01,0 -0.01,0 -0.02,0 h -0.63 c -0.27,0 -0.28,-0.01 -0.28,-0.27 v -2.64 c 0,-0.26 0.01,-0.27 0.28,-0.27 h 0.63 c 0.27,0 0.28,0.01 0.28,0.27 z" id="path5948"/><path style="fill:#000000;stroke-width:0" inkscape:connector-curvature="0" d="m 229.64,458.95 0,0.02 0,0.01 0,0.01 0,0.01 0,0.01 0,0.01 0,0.01 0,0.01 0,0.01 0,0.01 0,0.01 0,0.01 0,0 0,0.01 0,0.01 0,0.01 0,0 -0.01,0.01 0,0.01 0,0 0,0.01 -0.01,0.01 0,0.01 0,0.01 -0.01,0.01 -0.01,0.01 0,0 -0.01,0.01 -0.01,0 -0.01,0.01 -0.01,0 -0.01,0 0,0 -0.01,0 -0.01,0.01 0,0 -0.01,0 -0.01,0 0,0 -0.01,0 -0.01,0 -0.01,0 -0.01,0 -0.01,0 -0.01,0 -0.01,0 -0.01,0 -0.01,0 -0.01,0 -0.01,0 -0.01,0 -0.01,0 -0.02,0 h -0.63 c -0.27,0 -0.28,-0.01 -0.28,-0.27 v -2.64 c 0,-0.26 0.01,-0.27 0.28,-0.27 h 0.63 c 0.27,0 0.28,0.01 0.28,0.27 z" id="path5950"/><path style="fill:#000000;stroke-width:0" inkscape:connector-curvature="0" d="m 229.64,442.62 0,0.09 0,0.09 0.01,0.09 0,0.1 0.01,0.11 0.01,0.11 0.01,0.12 0.02,0.12 0.02,0.13 0.02,0.13 0.03,0.13 0.03,0.14 0.03,0.14 0.04,0.15 0.04,0.14 0.05,0.15 0.05,0.15 0.06,0.15 0.07,0.15 0.07,0.16 0.08,0.15 0.08,0.15 0.1,0.16 0.1,0.15 0.1,0.15 0.12,0.15 0.12,0.14 0.13,0.15 0.14,0.14 0.15,0.14 0.16,0.13 0.16,0.14 c 0.11,0.09 0.12,0.1 0.12,0.27 0,0.18 -0.01,0.19 -0.12,0.28 -0.26,0.2 -0.94,0.73 -1.42,1.73 -0.39,0.8 -0.59,1.68 -0.59,2.56 v 4.21 c 0,0.25 -0.01,0.26 -0.28,0.26 h -0.63 c -0.27,0 -0.28,-0.01 -0.28,-0.26 v -4.2 c 0,-1.2 0.51,-3.22 2.73,-4.58 -2.24,-1.36 -2.73,-3.4 -2.73,-4.58 v -4.19 c 0,-0.25 0.01,-0.27 0.28,-0.27 h 0.63 c 0.27,0 0.28,0.02 0.28,0.27 z" id="path5952"/><path style="fill:#000000;stroke-width:0" inkscape:connector-curvature="0" d="m 229.64,438.03 0,0.02 0,0.01 0,0.01 0,0.01 0,0.01 0,0.01 0,0.01 0,0.01 0,0.01 0,0.01 0,0.01 0,0 0,0.01 0,0.01 0,0.01 0,0 0,0.01 -0.01,0.01 0,0 0,0.01 0,0.01 -0.01,0.01 0,0.01 0,0.01 -0.01,0.01 -0.01,0 0,0.01 -0.01,0.01 -0.01,0 -0.01,0.01 -0.01,0 -0.01,0 0,0 -0.01,0 -0.01,0 0,0.01 -0.01,0 -0.01,0 0,0 -0.01,0 -0.01,0 -0.01,0 -0.01,0 -0.01,0 -0.01,0 -0.01,0 -0.01,0 -0.01,0 -0.01,0 -0.01,0 -0.01,0 -0.01,0 -0.02,0 h -0.63 c -0.27,0 -0.28,-0.01 -0.28,-0.27 v -2.64 c 0,-0.26 0.01,-0.27 0.28,-0.27 h 0.63 c 0.27,0 0.28,0.01 0.28,0.27 z" id="path5954"/><path style="fill:#000000;stroke-width:0" inkscape:connector-curvature="0" d="m 229.64,435.05 0,0.01 0,0.01 0,0.01 0,0.01 0,0.01 0,0.01 0,0.01 0,0.01 0,0.01 0,0.01 0,0.01 0,0.01 0,0 0,0.01 0,0.01 0,0.01 0,0 -0.01,0.01 0,0.01 0,0 0,0.01 -0.01,0.01 0,0.01 0,0.01 -0.01,0.01 -0.01,0.01 0,0 -0.01,0.01 -0.01,0 -0.01,0.01 -0.01,0 -0.01,0 0,0 -0.01,0 -0.01,0.01 0,0 -0.01,0 -0.01,0 0,0 -0.01,0 -0.01,0 -0.01,0 -0.01,0 -0.01,0 -0.01,0 -0.01,0 -0.01,0 -0.01,0 -0.01,0 -0.01,0 -0.01,0 -0.01,0 -0.02,0 h -0.63 c -0.27,0 -0.28,-0.01 -0.28,-0.26 v -2.65 c 0,-0.26 0.01,-0.27 0.28,-0.27 h 0.63 c 0.27,0 0.28,0.01 0.28,0.27 z" id="path5956"/><path style="fill:#000000;stroke-width:0" inkscape:connector-curvature="0" d="m 229.64,432.06 0,0.01 0,0.01 0,0.01 0,0.01 0,0.01 0,0.01 0,0.01 0,0.01 0,0.01 0,0.01 0,0.01 0,0.01 0,0 0,0.01 0,0.01 0,0.01 0,0 -0.01,0.01 0,0.01 0,0 0,0.01 -0.01,0.01 0,0.01 0,0.01 -0.01,0.01 -0.01,0.01 0,0 -0.01,0.01 -0.01,0 -0.01,0.01 -0.01,0 -0.01,0 0,0 -0.01,0.01 -0.01,0 0,0 -0.01,0 -0.01,0 0,0 -0.01,0 -0.01,0 -0.01,0 -0.01,0 -0.01,0 -0.01,0 -0.01,0 -0.01,0 -0.01,0 -0.01,0 -0.01,0 -0.01,0 -0.01,0 -0.02,0 h -0.63 c -0.27,0 -0.28,-0.01 -0.28,-0.26 v -2.65 c 0,-0.26 0.01,-0.27 0.28,-0.27 h 0.63 c 0.27,0 0.28,0.01 0.28,0.27 z" id="path5958"/><path style="fill:#000000;stroke-width:0" inkscape:connector-curvature="0" d="m 229.64,429.07 0,0.01 0,0.01 0,0.01 0,0.01 0,0.01 0,0.01 0,0.01 0,0.01 0,0.01 0,0.01 0,0.01 0,0.01 0,0.01 0,0 0,0.01 0,0.01 0,0 -0.01,0.01 0,0.01 0,0 0,0.01 -0.01,0.02 0,0 0,0.01 -0.01,0.01 -0.01,0.01 0,0 -0.01,0.01 -0.01,0 -0.01,0.01 -0.01,0 -0.01,0 0,0 -0.01,0.01 -0.01,0 0,0 -0.01,0 -0.01,0 0,0 -0.01,0 -0.01,0 -0.01,0 -0.01,0 -0.01,0 -0.01,0 -0.01,0 -0.01,0 -0.01,0 -0.01,0 -0.01,0 -0.01,0 -0.01,0 -0.02,0 h -0.63 c -0.27,0 -0.28,0 -0.28,-0.26 v -2.65 c 0,-0.25 0.01,-0.26 0.28,-0.26 h 0.63 c 0.27,0 0.28,0.01 0.28,0.26 z" id="path5960"/><path style="fill:#000000;stroke-width:0" inkscape:connector-curvature="0" d="m 229.64,426.08 0,0.01 0,0.01 0,0.01 0,0.01 0,0.01 0,0.01 0,0.01 0,0.01 0,0.01 0,0.01 0,0.01 0,0.01 0,0.01 0,0 0,0.01 0,0.01 0,0.01 -0.01,0 0,0.01 0,0 0,0.02 -0.01,0.01 0,0.01 0,0 -0.01,0.01 -0.01,0.01 0,0 -0.01,0.01 -0.01,0.01 -0.01,0 -0.01,0 -0.01,0 0,0.01 -0.01,0 -0.01,0 0,0 -0.01,0 -0.01,0 0,0 -0.01,0 -0.01,0 -0.01,0 -0.01,0 -0.01,0 -0.01,0.01 -0.01,0 -0.01,0 -0.01,0 -0.01,0 -0.01,0 -0.01,0 -0.01,0 -0.02,0 h -0.63 c -0.27,0 -0.28,-0.01 -0.28,-0.27 v -2.65 c 0,-0.25 0.01,-0.26 0.28,-0.26 h 0.63 c 0.27,0 0.28,0.01 0.28,0.26 z" id="path5962"/><path style="fill:#000000;stroke-width:0" inkscape:connector-curvature="0" d="m 229.64,423.09 0,0.01 0,0.01 0,0.01 0,0.01 0,0.02 0,0.01 0,0.01 0,0 0,0.01 0,0.01 0,0.01 0,0.01 0,0.01 0,0.01 0,0 0,0.01 0,0.01 -0.01,0 0,0.01 0,0.01 0,0.01 -0.01,0.01 0,0.01 0,0.01 -0.01,0 -0.01,0.01 0,0.01 -0.01,0 -0.01,0.01 -0.01,0 -0.01,0 -0.01,0.01 0,0 -0.01,0 -0.01,0 0,0 -0.01,0 -0.01,0 0,0 -0.01,0 -0.01,0 -0.01,0 -0.01,0.01 -0.01,0 -0.01,0 -0.01,0 -0.01,0 -0.01,0 -0.01,0 -0.01,0 -0.01,0 -0.01,0 -0.02,0 h -0.63 c -0.27,0 -0.28,-0.01 -0.28,-0.27 v -2.64 c 0,-0.26 0.01,-0.27 0.28,-0.27 h 0.63 c 0.27,0 0.28,0.01 0.28,0.27 z" id="path5964"/><path style="fill:#000000;stroke-width:0" inkscape:connector-curvature="0" d="m 229.64,420.1 0,0.01 0,0.01 0,0.02 0,0.01 0,0.01 0,0.01 0,0.01 0,0.01 0,0.01 0,0 0,0.01 0,0.01 0,0.01 0,0.01 0,0 0,0.01 0,0.01 -0.01,0.01 0,0 0,0.01 0,0.01 -0.01,0.01 0,0.01 0,0.01 -0.01,0 -0.01,0.01 0,0.01 -0.01,0 -0.01,0.01 -0.01,0 -0.01,0.01 -0.01,0 0,0 -0.01,0 -0.01,0 0,0 -0.01,0 -0.01,0 0,0.01 -0.01,0 -0.01,0 -0.01,0 -0.01,0 -0.01,0 -0.01,0 -0.01,0 -0.01,0 -0.01,0 -0.01,0 -0.01,0 -0.01,0 -0.01,0 -0.02,0 h -0.63 c -0.27,0 -0.28,-0.01 -0.28,-0.27 v -2.64 c 0,-0.26 0.01,-0.27 0.28,-0.27 h 0.63 c 0.27,0 0.28,0.01 0.28,0.27 z" id="path5966"/><path style="fill:#000000;stroke-width:0" inkscape:connector-curvature="0" d="m 228.45,412.84 0,-0.08 0,-0.09 -0.01,-0.1 0,-0.1 -0.01,-0.1 -0.01,-0.11 -0.02,-0.11 -0.02,-0.12 -0.02,-0.12 -0.02,-0.12 -0.03,-0.13 -0.03,-0.13 -0.03,-0.13 -0.04,-0.13 -0.05,-0.14 -0.05,-0.13 -0.05,-0.14 -0.06,-0.14 -0.07,-0.14 -0.07,-0.14 -0.08,-0.13 -0.08,-0.14 -0.09,-0.14 -0.1,-0.14 -0.11,-0.13 -0.11,-0.13 -0.12,-0.14 -0.12,-0.12 -0.14,-0.13 -0.14,-0.12 -0.15,-0.13 -0.16,-0.11 c -0.13,-0.1 -0.14,-0.11 -0.14,-0.29 0,-0.23 0.01,-0.24 0.27,-0.24 h 0.15 c 2.15,1.15 2.9,3.03 2.9,4.49 v 4.27 c 0,0.26 -0.01,0.27 -0.28,0.27 h -0.63 c -0.27,0 -0.28,-0.01 -0.28,-0.27 z" id="path5968"/></g>  </g>
  <g style="display:none" inkscape:label="o4" id="layer4" inkscape:groupmode="layer" transform="translate(-232.17805,-492.03227)">    <rect style="opacity:0.26000001;color:#000000;fill:#008080;fill-opacity:1;fill-rule:nonzero;stroke:none;stroke-width:0.17925029;marker:none;visibility:visible;display:inline;overflow:visible;enable-background:accumulate" id="rect5393-7-9" width="471.54486" height="160.33862" x="260.09967" y="527.36987"/>
    <text xml:space="preserve" style="font-size:18px;font-style:normal;font-variant:normal;font-weight:normal;font-stretch:normal;text-align:start;line-height:125%;letter-spacing:0px;word-spacing:0px;text-anchor:start;fill:#000000;fill-opacity:1;stroke:none;font-family:Arial;-inkscape-font-specification:Sans" x="749.91693" y="606.06366" id="text5764-9-4" sodipodi:linespacing="125%"><tspan sodipodi:role="line" x="749.91693" y="606.06366" id="tspan6409">n-1 </tspan><tspan sodipodi:role="line" x="749.91693" y="628.56366" id="tspan5839-1-0">times</tspan></text>
    <g style="font-style:normal;font-variant:normal;font-weight:normal;font-stretch:normal;letter-spacing:normal;word-spacing:normal;text-anchor:start;fill:none;stroke:#000000;stroke-linecap:butt;stroke-linejoin:miter;stroke-miterlimit:10.43299961;stroke-opacity:1;stroke-dasharray:none;stroke-dashoffset:0" ns0:preamble="/home/backofen/TeX/Macros/Preamble/inkscape-std-packages.sty" ns0:text="$\\left.\\rule{0pt}{2cm}\\right\\}$" word-spacing="normal" letter-spacing="normal" font-size-adjust="none" font-stretch="normal" font-weight="normal" font-variant="normal" font-style="normal" stroke-miterlimit="10.433" xml:space="preserve" transform="matrix(1.4605403,0,0,-1.4605403,405.45836,1240.4372)" id="g6244"><path id="path6246" d="m 228.45,478.02 0,-0.01 0,-0.01 0,-0.01 0,-0.01 0,-0.01 0,-0.01 0,-0.01 0,-0.01 0,-0.01 0,-0.01 0,-0.01 0,-0.01 0,-0.01 0,0 0,-0.01 0,-0.01 0.01,0 0,-0.01 0,-0.01 0,0 0,-0.01 0.01,-0.02 0,0 0.01,-0.01 0,-0.01 0.01,-0.01 0,0 0.01,-0.01 0.01,0 0.01,-0.01 0.01,0 0.01,0 0,0 0.01,-0.01 0.01,0 0,0 0.01,0 0.01,0 0.01,0 0,0 0.01,0 0.01,0 0.01,0 0.01,0 0.01,0 0.01,0 0.01,0 0.01,0 0.01,0 0.01,0 0.01,0 0.01,0 0.02,0 h 0.63 c 0.27,0 0.28,0.01 0.28,0.26 v 4.28 c 0,1.46 -0.76,3.33 -2.9,4.49 h -0.15 c -0.26,0 -0.27,-0.02 -0.27,-0.24 0,-0.18 0.01,-0.19 0.05,-0.22 0.31,-0.23 1.02,-0.74 1.49,-1.65 0.27,-0.54 0.59,-1.31 0.59,-2.38 z" inkscape:connector-curvature="0" style="fill:#000000;stroke-width:0"/><path id="path6248" d="m 229.64,477.66 0,0.01 0,0.01 0,0.01 0,0.01 0,0.02 0,0.01 0,0.01 0,0 0,0.01 0,0.01 0,0.01 0,0.01 0,0.01 0,0.01 0,0 0,0.01 0,0.01 -0.01,0 0,0.01 0,0.01 0,0.01 -0.01,0.01 0,0.01 0,0.01 -0.01,0 -0.01,0.01 0,0.01 -0.01,0 -0.01,0.01 -0.01,0 -0.01,0 -0.01,0.01 0,0 -0.01,0 -0.01,0 0,0 -0.01,0 -0.01,0 0,0 -0.01,0 -0.01,0 -0.01,0 -0.01,0.01 -0.01,0 -0.01,0 -0.01,0 -0.01,0 -0.01,0 -0.01,0 -0.01,0 -0.01,0 -0.01,0 -0.02,0 h -0.63 c -0.27,0 -0.28,-0.01 -0.28,-0.27 v -2.64 c 0,-0.26 0.01,-0.27 0.28,-0.27 h 0.63 c 0.27,0 0.28,0.01 0.28,0.27 z" inkscape:connector-curvature="0" style="fill:#000000;stroke-width:0"/><path id="path6250" d="m 229.64,474.67 0,0.01 0,0.01 0,0.01 0,0.02 0,0.01 0,0.01 0,0.01 0,0.01 0,0 0,0.01 0,0.01 0,0.01 0,0.01 0,0.01 0,0 0,0.01 0,0.01 -0.01,0 0,0.01 0,0.01 0,0.01 -0.01,0.01 0,0.01 0,0.01 -0.01,0 -0.01,0.01 0,0.01 -0.01,0 -0.01,0.01 -0.01,0 -0.01,0 -0.01,0.01 0,0 -0.01,0 -0.01,0 0,0 -0.01,0 -0.01,0 0,0 -0.01,0 -0.01,0.01 -0.01,0 -0.01,0 -0.01,0 -0.01,0 -0.01,0 -0.01,0 -0.01,0 -0.01,0 -0.01,0 -0.01,0 -0.01,0 -0.02,0 h -0.63 c -0.27,0 -0.28,-0.01 -0.28,-0.27 v -2.64 c 0,-0.26 0.01,-0.27 0.28,-0.27 h 0.63 c 0.27,0 0.28,0.01 0.28,0.27 z" inkscape:connector-curvature="0" style="fill:#000000;stroke-width:0"/><path id="path6252" d="m 229.64,471.68 0,0.01 0,0.01 0,0.02 0,0.01 0,0.01 0,0.01 0,0.01 0,0.01 0,0.01 0,0 0,0.01 0,0.01 0,0.01 0,0.01 0,0 0,0.01 0,0.01 -0.01,0.01 0,0 0,0.01 0,0.01 -0.01,0.01 0,0.01 0,0.01 -0.01,0 -0.01,0.01 0,0.01 -0.01,0 -0.01,0.01 -0.01,0 -0.01,0.01 -0.01,0 0,0 -0.01,0 -0.01,0 0,0 -0.01,0 -0.01,0 0,0.01 -0.01,0 -0.01,0 -0.01,0 -0.01,0 -0.01,0 -0.01,0 -0.01,0 -0.01,0 -0.01,0 -0.01,0 -0.01,0 -0.01,0 -0.01,0 -0.02,0 h -0.63 c -0.27,0 -0.28,-0.01 -0.28,-0.27 v -2.64 c 0,-0.26 0.01,-0.27 0.28,-0.27 h 0.63 c 0.27,0 0.28,0.01 0.28,0.27 z" inkscape:connector-curvature="0" style="fill:#000000;stroke-width:0"/><path id="path6254" d="m 229.64,468.69 0,0.01 0,0.02 0,0.01 0,0.01 0,0.01 0,0.01 0,0.01 0,0.01 0,0.01 0,0.01 0,0.01 0,0 0,0.01 0,0.01 0,0.01 0,0 0,0.01 -0.01,0.01 0,0 0,0.01 0,0.01 -0.01,0.01 0,0.01 0,0.01 -0.01,0.01 -0.01,0 0,0.01 -0.01,0.01 -0.01,0 -0.01,0 -0.01,0.01 -0.01,0 0,0 -0.01,0 -0.01,0 0,0 -0.01,0.01 -0.01,0 0,0 -0.01,0 -0.01,0 -0.01,0 -0.01,0 -0.01,0 -0.01,0 -0.01,0 -0.01,0 -0.01,0 -0.01,0 -0.01,0 -0.01,0 -0.01,0 -0.02,0 h -0.63 c -0.27,0 -0.28,-0.01 -0.28,-0.27 v -2.64 c 0,-0.26 0.01,-0.27 0.28,-0.27 h 0.63 c 0.27,0 0.28,0.01 0.28,0.27 z" inkscape:connector-curvature="0" style="fill:#000000;stroke-width:0"/><path id="path6256" d="m 229.64,465.7 0,0.02 0,0.01 0,0.01 0,0.01 0,0.01 0,0.01 0,0.01 0,0.01 0,0.01 0,0.01 0,0.01 0,0 0,0.01 0,0.01 0,0.01 0,0 0,0.01 -0.01,0.01 0,0 0,0.01 0,0.01 -0.01,0.01 0,0.01 0,0.01 -0.01,0.01 -0.01,0 0,0.01 -0.01,0.01 -0.01,0 -0.01,0.01 -0.01,0 -0.01,0 0,0 -0.01,0 -0.01,0 0,0.01 -0.01,0 -0.01,0 0,0 -0.01,0 -0.01,0 -0.01,0 -0.01,0 -0.01,0 -0.01,0 -0.01,0 -0.01,0 -0.01,0 -0.01,0 -0.01,0 -0.01,0 -0.01,0 -0.02,0 h -0.63 c -0.27,0 -0.28,-0.01 -0.28,-0.27 v -2.64 c 0,-0.26 0.01,-0.27 0.28,-0.27 h 0.63 c 0.27,0 0.28,0.01 0.28,0.27 z" inkscape:connector-curvature="0" style="fill:#000000;stroke-width:0"/><path id="path6258" d="m 229.64,462.71 0,0.02 0,0.01 0,0.01 0,0.01 0,0.01 0,0.01 0,0.01 0,0.01 0,0.01 0,0.01 0,0.01 0,0.01 0,0 0,0.01 0,0.01 0,0.01 0,0 -0.01,0.01 0,0.01 0,0 0,0.01 -0.01,0.01 0,0.01 0,0.01 -0.01,0.01 -0.01,0.01 0,0 -0.01,0.01 -0.01,0 -0.01,0.01 -0.01,0 -0.01,0 0,0 -0.01,0 -0.01,0.01 0,0 -0.01,0 -0.01,0 0,0 -0.01,0 -0.01,0 -0.01,0 -0.01,0 -0.01,0 -0.01,0 -0.01,0 -0.01,0 -0.01,0 -0.01,0 -0.01,0 -0.01,0 -0.01,0 -0.02,0 h -0.63 c -0.27,0 -0.28,-0.01 -0.28,-0.27 v -2.64 c 0,-0.26 0.01,-0.27 0.28,-0.27 h 0.63 c 0.27,0 0.28,0.01 0.28,0.27 z" inkscape:connector-curvature="0" style="fill:#000000;stroke-width:0"/><path id="path6260" d="m 229.64,459.73 0,0.01 0,0.01 0,0.01 0,0.01 0,0.01 0,0.01 0,0.01 0,0.01 0,0.01 0,0.01 0,0.01 0,0.01 0,0 0,0.01 0,0.01 0,0.01 0,0 -0.01,0.01 0,0.01 0,0 0,0.01 -0.01,0.01 0,0.01 0,0.01 -0.01,0.01 -0.01,0.01 0,0 -0.01,0.01 -0.01,0 -0.01,0.01 -0.01,0 -0.01,0 0,0 -0.01,0.01 -0.01,0 0,0 -0.01,0 -0.01,0 0,0 -0.01,0 -0.01,0 -0.01,0 -0.01,0 -0.01,0 -0.01,0 -0.01,0 -0.01,0 -0.01,0 -0.01,0 -0.01,0 -0.01,0 -0.01,0 -0.02,0 h -0.63 c -0.27,0 -0.28,-0.01 -0.28,-0.26 v -2.65 c 0,-0.25 0.01,-0.26 0.28,-0.26 h 0.63 c 0.27,0 0.28,0.01 0.28,0.26 z" inkscape:connector-curvature="0" style="fill:#000000;stroke-width:0"/><path id="path6262" d="m 229.64,456.74 0,0.01 0,0.01 0,0.01 0,0.01 0,0.01 0,0.01 0,0.01 0,0.01 0,0.01 0,0.01 0,0.01 0,0.01 0,0.01 0,0 0,0.01 0,0.01 0,0 -0.01,0.01 0,0.01 0,0 0,0.01 -0.01,0.02 0,0 0,0.01 -0.01,0.01 -0.01,0.01 0,0 -0.01,0.01 -0.01,0 -0.01,0.01 -0.01,0 -0.01,0 0,0 -0.01,0.01 -0.01,0 0,0 -0.01,0 -0.01,0 0,0 -0.01,0 -0.01,0 -0.01,0 -0.01,0 -0.01,0 -0.01,0 -0.01,0 -0.01,0 -0.01,0 -0.01,0 -0.01,0 -0.01,0 -0.01,0 -0.02,0.01 h -0.63 c -0.27,0 -0.28,-0.02 -0.28,-0.27 v -2.64 c 0,-0.26 0.01,-0.27 0.28,-0.27 h 0.63 c 0.27,0 0.28,0.01 0.28,0.27 z" inkscape:connector-curvature="0" style="fill:#000000;stroke-width:0"/><path id="path6264" d="m 229.64,453.75 0,0.01 0,0.01 0,0.01 0,0.01 0,0.02 0,0.01 0,0.01 0,0 0,0.01 0,0.01 0,0.01 0,0.01 0,0.01 0,0.01 0,0 0,0.01 0,0.01 -0.01,0 0,0.01 0,0.01 0,0.01 -0.01,0.01 0,0.01 0,0.01 -0.01,0 -0.01,0.01 0,0.01 -0.01,0 -0.01,0.01 -0.01,0 -0.01,0 -0.01,0.01 0,0 -0.01,0 -0.01,0 0,0 -0.01,0 -0.01,0 0,0 -0.01,0 -0.01,0 -0.01,0 -0.01,0.01 -0.01,0 -0.01,0 -0.01,0 -0.01,0 -0.01,0 -0.01,0 -0.01,0 -0.01,0 -0.01,0 -0.02,0 h -0.63 c -0.27,0 -0.28,-0.01 -0.28,-0.27 v -2.64 c 0,-0.26 0.01,-0.27 0.28,-0.27 h 0.63 c 0.27,0 0.28,0.01 0.28,0.27 z" inkscape:connector-curvature="0" style="fill:#000000;stroke-width:0"/><path id="path6266" d="m 229.64,450.76 0,0.01 0,0.01 0,0.01 0,0.02 0,0.01 0,0.01 0,0.01 0,0.01 0,0 0,0.01 0,0.01 0,0.01 0,0.01 0,0.01 0,0 0,0.01 0,0.01 -0.01,0 0,0.01 0,0.01 0,0.01 -0.01,0.01 0,0.01 0,0.01 -0.01,0 -0.01,0.01 0,0.01 -0.01,0 -0.01,0.01 -0.01,0 -0.01,0 -0.01,0.01 0,0 -0.01,0 -0.01,0 0,0 -0.01,0 -0.01,0 0,0 -0.01,0 -0.01,0.01 -0.01,0 -0.01,0 -0.01,0 -0.01,0 -0.01,0 -0.01,0 -0.01,0 -0.01,0 -0.01,0 -0.01,0 -0.01,0 -0.02,0 h -0.63 c -0.27,0 -0.28,-0.01 -0.28,-0.27 v -2.64 c 0,-0.26 0.01,-0.27 0.28,-0.27 h 0.63 c 0.27,0 0.28,0.01 0.28,0.27 z" inkscape:connector-curvature="0" style="fill:#000000;stroke-width:0"/><path id="path6268" d="m 229.64,447.77 0,0.01 0,0.01 0,0.02 0,0.01 0,0.01 0,0.01 0,0.01 0,0.01 0,0.01 0,0 0,0.01 0,0.01 0,0.01 0,0.01 0,0 0,0.01 0,0.01 -0.01,0.01 0,0 0,0.01 0,0.01 -0.01,0.01 0,0.01 0,0.01 -0.01,0 -0.01,0.01 0,0.01 -0.01,0 -0.01,0.01 -0.01,0 -0.01,0.01 -0.01,0 0,0 -0.01,0 -0.01,0 0,0 -0.01,0 -0.01,0 0,0.01 -0.01,0 -0.01,0 -0.01,0 -0.01,0 -0.01,0 -0.01,0 -0.01,0 -0.01,0 -0.01,0 -0.01,0 -0.01,0 -0.01,0 -0.01,0 -0.02,0 h -0.63 c -0.27,0 -0.28,-0.01 -0.28,-0.27 v -2.64 c 0,-0.26 0.01,-0.27 0.28,-0.27 h 0.63 c 0.27,0 0.28,0.01 0.28,0.27 z" inkscape:connector-curvature="0" style="fill:#000000;stroke-width:0"/><path id="path6270" d="m 229.64,444.78 0,0.01 0,0.02 0,0.01 0,0.01 0,0.01 0,0.01 0,0.01 0,0.01 0,0.01 0,0.01 0,0 0,0.01 0,0.01 0,0.01 0,0.01 0,0 0,0.01 -0.01,0.01 0,0 0,0.01 0,0.01 -0.01,0.01 0,0.01 0,0.01 -0.01,0.01 -0.01,0 0,0.01 -0.01,0 -0.01,0.01 -0.01,0 -0.01,0.01 -0.01,0 0,0 -0.01,0 -0.01,0 0,0 -0.01,0 -0.01,0.01 0,0 -0.01,0 -0.01,0 -0.01,0 -0.01,0 -0.01,0 -0.01,0 -0.01,0 -0.01,0 -0.01,0 -0.01,0 -0.01,0 -0.01,0 -0.01,0 -0.02,0 h -0.63 c -0.27,0 -0.28,-0.01 -0.28,-0.27 v -2.64 c 0,-0.26 0.01,-0.27 0.28,-0.27 h 0.63 c 0.27,0 0.28,0.01 0.28,0.27 z" inkscape:connector-curvature="0" style="fill:#000000;stroke-width:0"/><path id="path6272" d="m 229.64,428.45 0,0.08 0,0.09 0.01,0.1 0,0.1 0.01,0.11 0.01,0.11 0.01,0.12 0.02,0.12 0.02,0.13 0.02,0.13 0.03,0.13 0.03,0.14 0.03,0.14 0.04,0.14 0.04,0.15 0.05,0.15 0.05,0.15 0.06,0.15 0.07,0.15 0.07,0.15 0.08,0.16 0.08,0.15 0.1,0.15 0.1,0.15 0.1,0.15 0.12,0.15 0.12,0.15 0.13,0.14 0.14,0.15 0.15,0.13 0.16,0.14 0.16,0.13 c 0.11,0.09 0.12,0.1 0.12,0.28 0,0.18 -0.01,0.19 -0.12,0.28 -0.26,0.2 -0.94,0.72 -1.42,1.73 -0.39,0.79 -0.59,1.68 -0.59,2.56 v 4.2 c 0,0.26 -0.01,0.27 -0.28,0.27 h -0.63 c -0.27,0 -0.28,-0.01 -0.28,-0.27 v -4.19 c 0,-1.2 0.51,-3.23 2.73,-4.58 -2.24,-1.36 -2.73,-3.41 -2.73,-4.58 v -4.19 c 0,-0.26 0.01,-0.27 0.28,-0.27 h 0.63 c 0.27,0 0.28,0.01 0.28,0.27 z" inkscape:connector-curvature="0" style="fill:#000000;stroke-width:0"/><path id="path6274" d="m 229.64,423.86 0,0.01 0,0.01 0,0.01 0,0.02 0,0.01 0,0.01 0,0.01 0,0.01 0,0 0,0.01 0,0.01 0,0.01 0,0.01 0,0.01 0,0 0,0.01 0,0.01 -0.01,0 0,0.01 0,0.01 0,0.01 -0.01,0.01 0,0.01 0,0.01 -0.01,0 -0.01,0.01 0,0.01 -0.01,0 -0.01,0.01 -0.01,0 -0.01,0 -0.01,0.01 0,0 -0.01,0 -0.01,0 0,0 -0.01,0 -0.01,0 0,0 -0.01,0 -0.01,0.01 -0.01,0 -0.01,0 -0.01,0 -0.01,0 -0.01,0 -0.01,0 -0.01,0 -0.01,0 -0.01,0 -0.01,0 -0.01,0 -0.02,0 h -0.63 c -0.27,0 -0.28,-0.01 -0.28,-0.27 v -2.64 c 0,-0.26 0.01,-0.27 0.28,-0.27 h 0.63 c 0.27,0 0.28,0.01 0.28,0.27 z" inkscape:connector-curvature="0" style="fill:#000000;stroke-width:0"/><path id="path6276" d="m 229.64,420.87 0,0.01 0,0.01 0,0.02 0,0.01 0,0.01 0,0.01 0,0.01 0,0.01 0,0.01 0,0 0,0.01 0,0.01 0,0.01 0,0.01 0,0 0,0.01 0,0.01 -0.01,0.01 0,0 0,0.01 0,0.01 -0.01,0.01 0,0.01 0,0.01 -0.01,0 -0.01,0.01 0,0.01 -0.01,0 -0.01,0.01 -0.01,0 -0.01,0.01 -0.01,0 0,0 -0.01,0 -0.01,0 0,0 -0.01,0 -0.01,0 0,0.01 -0.01,0 -0.01,0 -0.01,0 -0.01,0 -0.01,0 -0.01,0 -0.01,0 -0.01,0 -0.01,0 -0.01,0 -0.01,0 -0.01,0 -0.01,0 -0.02,0 h -0.63 c -0.27,0 -0.28,-0.01 -0.28,-0.27 v -2.64 c 0,-0.26 0.01,-0.27 0.28,-0.27 h 0.63 c 0.27,0 0.28,0.01 0.28,0.27 z" inkscape:connector-curvature="0" style="fill:#000000;stroke-width:0"/><path id="path6278" d="m 229.64,417.88 0,0.01 0,0.02 0,0.01 0,0.01 0,0.01 0,0.01 0,0.01 0,0.01 0,0.01 0,0.01 0,0.01 0,0 0,0.01 0,0.01 0,0.01 0,0 0,0.01 -0.01,0.01 0,0 0,0.01 0,0.01 -0.01,0.01 0,0.01 0,0.01 -0.01,0.01 -0.01,0 0,0.01 -0.01,0.01 -0.01,0 -0.01,0 -0.01,0.01 -0.01,0 0,0 -0.01,0 -0.01,0 0,0 -0.01,0.01 -0.01,0 0,0 -0.01,0 -0.01,0 -0.01,0 -0.01,0 -0.01,0 -0.01,0 -0.01,0 -0.01,0 -0.01,0 -0.01,0 -0.01,0 -0.01,0 -0.01,0 -0.02,0 h -0.63 c -0.27,0 -0.28,-0.01 -0.28,-0.27 v -2.64 c 0,-0.26 0.01,-0.27 0.28,-0.27 h 0.63 c 0.27,0 0.28,0.01 0.28,0.27 z" inkscape:connector-curvature="0" style="fill:#000000;stroke-width:0"/><path id="path6280" d="m 229.64,414.89 0,0.02 0,0.01 0,0.01 0,0.01 0,0.01 0,0.01 0,0.01 0,0.01 0,0.01 0,0.01 0,0.01 0,0 0,0.01 0,0.01 0,0.01 0,0 0,0.01 -0.01,0.01 0,0 0,0.01 0,0.01 -0.01,0.01 0,0.01 0,0.01 -0.01,0.01 -0.01,0 0,0.01 -0.01,0.01 -0.01,0 -0.01,0.01 -0.01,0 -0.01,0 0,0 -0.01,0 -0.01,0 0,0.01 -0.01,0 -0.01,0 0,0 -0.01,0 -0.01,0 -0.01,0 -0.01,0 -0.01,0 -0.01,0 -0.01,0 -0.01,0 -0.01,0 -0.01,0 -0.01,0 -0.01,0 -0.01,0 -0.02,0 h -0.63 c -0.27,0 -0.28,-0.01 -0.28,-0.27 v -2.64 c 0,-0.26 0.01,-0.27 0.28,-0.27 h 0.63 c 0.27,0 0.28,0.01 0.28,0.27 z" inkscape:connector-curvature="0" style="fill:#000000;stroke-width:0"/><path id="path6282" d="m 229.64,411.9 0,0.02 0,0.01 0,0.01 0,0.01 0,0.01 0,0.01 0,0.01 0,0.01 0,0.01 0,0.01 0,0.01 0,0.01 0,0 0,0.01 0,0.01 0,0.01 0,0 -0.01,0.01 0,0.01 0,0 0,0.01 -0.01,0.01 0,0.01 0,0.01 -0.01,0.01 -0.01,0.01 0,0 -0.01,0.01 -0.01,0 -0.01,0.01 -0.01,0 -0.01,0 0,0 -0.01,0 -0.01,0.01 0,0 -0.01,0 -0.01,0 0,0 -0.01,0 -0.01,0 -0.01,0 -0.01,0 -0.01,0 -0.01,0 -0.01,0 -0.01,0 -0.01,0 -0.01,0 -0.01,0 -0.01,0 -0.01,0 -0.02,0 h -0.63 c -0.27,0 -0.28,-0.01 -0.28,-0.27 v -2.64 c 0,-0.26 0.01,-0.27 0.28,-0.27 h 0.63 c 0.27,0 0.28,0.01 0.28,0.27 z" inkscape:connector-curvature="0" style="fill:#000000;stroke-width:0"/><path id="path6284" d="m 229.64,408.92 0,0.01 0,0.01 0,0.01 0,0.01 0,0.01 0,0.01 0,0.01 0,0.01 0,0.01 0,0.01 0,0.01 0,0.01 0,0 0,0.01 0,0.01 0,0.01 0,0 -0.01,0.01 0,0.01 0,0 0,0.01 -0.01,0.01 0,0.01 0,0.01 -0.01,0.01 -0.01,0.01 0,0 -0.01,0.01 -0.01,0 -0.01,0.01 -0.01,0 -0.01,0 0,0 -0.01,0.01 -0.01,0 0,0 -0.01,0 -0.01,0 0,0 -0.01,0 -0.01,0 -0.01,0 -0.01,0 -0.01,0 -0.01,0 -0.01,0 -0.01,0 -0.01,0 -0.01,0 -0.01,0 -0.01,0 -0.01,0 -0.02,0 h -0.63 c -0.27,0 -0.28,-0.01 -0.28,-0.26 v -2.65 c 0,-0.25 0.01,-0.26 0.28,-0.26 h 0.63 c 0.27,0 0.28,0.01 0.28,0.26 z" inkscape:connector-curvature="0" style="fill:#000000;stroke-width:0"/><path id="path6286" d="m 229.64,405.93 0,0.01 0,0.01 0,0.01 0,0.01 0,0.01 0,0.01 0,0.01 0,0.01 0,0.01 0,0.01 0,0.01 0,0.01 0,0.01 0,0 0,0.01 0,0.01 0,0 -0.01,0.01 0,0.01 0,0 0,0.01 -0.01,0.02 0,0 0,0.01 -0.01,0.01 -0.01,0.01 0,0 -0.01,0.01 -0.01,0 -0.01,0.01 -0.01,0 -0.01,0 0,0 -0.01,0.01 -0.01,0 0,0 -0.01,0 -0.01,0 0,0 -0.01,0 -0.01,0 -0.01,0 -0.01,0 -0.01,0 -0.01,0 -0.01,0 -0.01,0 -0.01,0 -0.01,0 -0.01,0 -0.01,0 -0.01,0 -0.02,0.01 h -0.63 c -0.27,0 -0.28,-0.02 -0.28,-0.27 v -2.65 c 0,-0.25 0.01,-0.26 0.28,-0.26 h 0.63 c 0.27,0 0.28,0.01 0.28,0.26 z" inkscape:connector-curvature="0" style="fill:#000000;stroke-width:0"/><path id="path6288" d="m 229.64,402.94 0,0.01 0,0.01 0,0.01 0,0.01 0,0.01 0,0.01 0,0.01 0,0.01 0,0.01 0,0.01 0,0.01 0,0.01 0,0.01 0,0 0,0.01 0,0.01 0,0.01 -0.01,0 0,0.01 0,0 0,0.02 -0.01,0.01 0,0.01 0,0 -0.01,0.01 -0.01,0.01 0,0 -0.01,0.01 -0.01,0.01 -0.01,0 -0.01,0 -0.01,0 0,0.01 -0.01,0 -0.01,0 0,0 -0.01,0 -0.01,0 0,0 -0.01,0 -0.01,0 -0.01,0 -0.01,0 -0.01,0 -0.01,0.01 -0.01,0 -0.01,0 -0.01,0 -0.01,0 -0.01,0 -0.01,0 -0.01,0 -0.02,0 h -0.63 c -0.27,0 -0.28,-0.01 -0.28,-0.27 v -2.64 c 0,-0.26 0.01,-0.27 0.28,-0.27 h 0.63 c 0.27,0 0.28,0.01 0.28,0.27 z" inkscape:connector-curvature="0" style="fill:#000000;stroke-width:0"/><path id="path6290" d="m 229.64,399.95 0,0.01 0,0.01 0,0.01 0,0.02 0,0.01 0,0.01 0,0.01 0,0.01 0,0 0,0.01 0,0.01 0,0.01 0,0.01 0,0.01 0,0 0,0.01 0,0.01 -0.01,0 0,0.01 0,0.01 0,0.01 -0.01,0.01 0,0.01 0,0.01 -0.01,0 -0.01,0.01 0,0.01 -0.01,0 -0.01,0.01 -0.01,0 -0.01,0 -0.01,0.01 0,0 -0.01,0 -0.01,0 0,0 -0.01,0 -0.01,0 0,0 -0.01,0 -0.01,0.01 -0.01,0 -0.01,0 -0.01,0 -0.01,0 -0.01,0 -0.01,0 -0.01,0 -0.01,0 -0.01,0 -0.01,0 -0.01,0 -0.02,0 h -0.63 c -0.27,0 -0.28,-0.01 -0.28,-0.27 v -2.64 c 0,-0.26 0.01,-0.27 0.28,-0.27 h 0.63 c 0.27,0 0.28,0.01 0.28,0.27 z" inkscape:connector-curvature="0" style="fill:#000000;stroke-width:0"/><path id="path6292" d="m 229.64,396.96 0,0.01 0,0.01 0,0.02 0,0.01 0,0.01 0,0.01 0,0.01 0,0.01 0,0.01 0,0 0,0.01 0,0.01 0,0.01 0,0.01 0,0 0,0.01 0,0.01 -0.01,0.01 0,0 0,0.01 0,0.01 -0.01,0.01 0,0.01 0,0.01 -0.01,0 -0.01,0.01 0,0.01 -0.01,0 -0.01,0.01 -0.01,0 -0.01,0.01 -0.01,0 0,0 -0.01,0 -0.01,0 0,0 -0.01,0 -0.01,0 0,0.01 -0.01,0 -0.01,0 -0.01,0 -0.01,0 -0.01,0 -0.01,0 -0.01,0 -0.01,0 -0.01,0 -0.01,0 -0.01,0 -0.01,0 -0.01,0 -0.02,0 h -0.63 c -0.27,0 -0.28,-0.01 -0.28,-0.27 v -2.64 c 0,-0.26 0.01,-0.27 0.28,-0.27 h 0.63 c 0.27,0 0.28,0.01 0.28,0.27 z" inkscape:connector-curvature="0" style="fill:#000000;stroke-width:0"/><path id="path6294" d="m 229.64,393.97 0,0.01 0,0.02 0,0.01 0,0.01 0,0.01 0,0.01 0,0.01 0,0.01 0,0.01 0,0.01 0,0 0,0.01 0,0.01 0,0.01 0,0.01 0,0 0,0.01 -0.01,0.01 0,0 0,0.01 0,0.01 -0.01,0.01 0,0.01 0,0.01 -0.01,0.01 -0.01,0 0,0.01 -0.01,0 -0.01,0.01 -0.01,0 -0.01,0.01 -0.01,0 0,0 -0.01,0 -0.01,0 0,0 -0.01,0 -0.01,0.01 0,0 -0.01,0 -0.01,0 -0.01,0 -0.01,0 -0.01,0 -0.01,0 -0.01,0 -0.01,0 -0.01,0 -0.01,0 -0.01,0 -0.01,0 -0.01,0 -0.02,0 h -0.63 c -0.27,0 -0.28,-0.01 -0.28,-0.27 v -2.64 c 0,-0.26 0.01,-0.27 0.28,-0.27 h 0.63 c 0.27,0 0.28,0.01 0.28,0.27 z" inkscape:connector-curvature="0" style="fill:#000000;stroke-width:0"/><path id="path6296" d="m 229.64,390.98 0,0.01 0,0.02 0,0.01 0,0.01 0,0.01 0,0.01 0,0.01 0,0.01 0,0.01 0,0.01 0,0.01 0,0 0,0.01 0,0.01 0,0.01 0,0 0,0.01 -0.01,0.01 0,0 0,0.01 0,0.01 -0.01,0.01 0,0.01 0,0.01 -0.01,0.01 -0.01,0 0,0.01 -0.01,0.01 -0.01,0 -0.01,0 -0.01,0.01 -0.01,0 0,0 -0.01,0 -0.01,0 0,0 -0.01,0.01 -0.01,0 0,0 -0.01,0 -0.01,0 -0.01,0 -0.01,0 -0.01,0 -0.01,0 -0.01,0 -0.01,0 -0.01,0 -0.01,0 -0.01,0 -0.01,0 -0.01,0 -0.02,0 h -0.63 c -0.27,0 -0.28,-0.01 -0.28,-0.27 v -2.64 c 0,-0.26 0.01,-0.27 0.28,-0.27 h 0.63 c 0.27,0 0.28,0.01 0.28,0.27 z" inkscape:connector-curvature="0" style="fill:#000000;stroke-width:0"/><path id="path6298" d="m 228.45,383.72 0,-0.08 0,-0.09 -0.01,-0.1 0,-0.1 -0.01,-0.1 -0.01,-0.11 -0.02,-0.11 -0.02,-0.12 -0.02,-0.12 -0.02,-0.12 -0.03,-0.13 -0.03,-0.13 -0.03,-0.13 -0.04,-0.13 -0.05,-0.14 -0.05,-0.13 -0.05,-0.14 -0.06,-0.14 -0.07,-0.14 -0.07,-0.13 -0.08,-0.14 -0.08,-0.14 -0.09,-0.14 -0.1,-0.13 -0.11,-0.14 -0.11,-0.13 -0.12,-0.13 -0.12,-0.13 -0.14,-0.13 -0.14,-0.12 -0.15,-0.12 -0.16,-0.12 c -0.13,-0.1 -0.14,-0.11 -0.14,-0.29 0,-0.23 0.01,-0.24 0.27,-0.24 h 0.15 c 2.15,1.15 2.9,3.03 2.9,4.49 v 4.27 c 0,0.26 -0.01,0.27 -0.28,0.27 h -0.63 c -0.27,0 -0.28,-0.01 -0.28,-0.27 z" inkscape:connector-curvature="0" style="fill:#000000;stroke-width:0"/></g>  </g>
</svg>
