<?xml version="1.0" encoding="UTF-8" standalone="no"?>
<!-- Created with Inkscape (http://www.inkscape.org/) -->

<svg
   xmlns:dc="http://purl.org/dc/elements/1.1/"
   xmlns:cc="http://creativecommons.org/ns#"
   xmlns:rdf="http://www.w3.org/1999/02/22-rdf-syntax-ns#"
   xmlns:svg="http://www.w3.org/2000/svg"
   xmlns="http://www.w3.org/2000/svg"
   xmlns:sodipodi="http://sodipodi.sourceforge.net/DTD/sodipodi-0.dtd"
   xmlns:inkscape="http://www.inkscape.org/namespaces/inkscape"
   width="520.90155"
   height="612.92126"
   id="svg3603"
   version="1.1"
   inkscape:version="0.48.4 r9939"
   sodipodi:docname="Neues Dokument 1">
  <defs
     id="defs3605">
    <clipPath
       id="presentation_clip_path"
       clipPathUnits="userSpaceOnUse">
      <rect
         x="0"
         y="0"
         width="21000"
         height="29700"
         id="rect7" />
    </clipPath>
  </defs>
  <sodipodi:namedview
     id="base"
     pagecolor="#ffffff"
     bordercolor="#666666"
     borderopacity="1.0"
     inkscape:pageopacity="0.0"
     inkscape:pageshadow="2"
     inkscape:zoom="1.4"
     inkscape:cx="348.03414"
     inkscape:cy="489.31777"
     inkscape:document-units="px"
     inkscape:current-layer="layer8"
     showgrid="false"
     fit-margin-top="0"
     fit-margin-left="0"
     fit-margin-right="0"
     fit-margin-bottom="0"
     inkscape:window-width="1375"
     inkscape:window-height="876"
     inkscape:window-x="65"
     inkscape:window-y="24"
     inkscape:window-maximized="1" />
  <metadata
     id="metadata3608">
    <rdf:RDF>
      <cc:Work
         rdf:about="">
        <dc:format>image/svg+xml</dc:format>
        <dc:type
           rdf:resource="http://purl.org/dc/dcmitype/StillImage" />
        <dc:title></dc:title>
      </cc:Work>
    </rdf:RDF>
  </metadata>
  <g
     inkscape:label="o1"
     inkscape:groupmode="layer"
     id="layer1"
     transform="translate(131.87936,-208.7587)">
    <rect
       id="rect127"
       height="24.944881"
       width="24.944881"
       y="283.13272"
       x="-18.528967"
       class="BoundingBox"
       style="fill:none;stroke:none" />
    <path
       id="path133"
       d="m -18.493533,283.16815 0,0 z"
       inkscape:connector-curvature="0"
       style="fill:none;stroke:#3465a4;stroke-width:0.03543307" />
    <path
       id="path135"
       d="m 6.3450491,308.00673 0,0 z"
       inkscape:connector-curvature="0"
       style="fill:none;stroke:#3465a4;stroke-width:0.03543307" />
    <rect
       id="rect140"
       height="24.944881"
       width="24.944881"
       y="478.01459"
       x="6.2741828"
       class="BoundingBox"
       style="fill:none;stroke:none" />
    <path
       id="path146"
       d="m 6.309616,478.05003 0,0 z"
       inkscape:connector-curvature="0"
       style="fill:none;stroke:#3465a4;stroke-width:0.03543307" />
    <path
       id="path148"
       d="m 31.148198,502.88862 0,0 z"
       inkscape:connector-curvature="0"
       style="fill:none;stroke:#3465a4;stroke-width:0.03543307" />
    <rect
       id="rect153"
       height="24.944881"
       width="24.944881"
       y="222.8965"
       x="-18.528967"
       class="BoundingBox"
       style="fill:none;stroke:none" />
    <path
       id="path155"
       d="m -6.0919585,222.93193 c 7.01574786,0 12.4015745,5.38583 12.4015745,12.40158 0,7.01574 -5.38582664,12.40157 -12.4015745,12.40157 -7.0157475,0 -12.4015745,-5.38583 -12.4015745,-12.40157 0,-7.01575 5.385827,-12.40158 12.4015745,-12.40158 z m -12.4015745,0 0,0 z m 24.8385821,24.83858 0,0 z"
       inkscape:connector-curvature="0"
       style="fill:#ff9900;stroke:none" />
    <path
       id="path159"
       d="m -18.493533,222.93193 0,0 z"
       inkscape:connector-curvature="0"
       style="fill:none;stroke:#3465a4;stroke-width:0.03543307" />
    <path
       id="path161"
       d="m 6.3450491,247.77051 0,0 z"
       inkscape:connector-curvature="0"
       style="fill:none;stroke:#3465a4;stroke-width:0.03543307" />
    <rect
       id="rect166"
       height="24.944881"
       width="24.944881"
       y="385.88861"
       x="-32.702194"
       class="BoundingBox"
       style="fill:none;stroke:none" />
    <path
       id="path172"
       d="m -32.666761,385.92405 0,0 z"
       inkscape:connector-curvature="0"
       style="fill:none;stroke:#3465a4;stroke-width:0.03543307" />
    <path
       id="path174"
       d="m -7.8281789,410.76264 0,0 z"
       inkscape:connector-curvature="0"
       style="fill:none;stroke:#3465a4;stroke-width:0.03543307" />
    <rect
       id="rect179"
       height="24.944881"
       width="24.944881"
       y="580.77051"
       x="-103.56834"
       class="BoundingBox"
       style="fill:none;stroke:none" />
    <path
       id="path185"
       d="m -103.5329,580.80594 0,0 z"
       inkscape:connector-curvature="0"
       style="fill:none;stroke:#3465a4;stroke-width:0.03543307" />
    <path
       id="path187"
       d="m -78.694319,605.64452 0,0 z"
       inkscape:connector-curvature="0"
       style="fill:none;stroke:#3465a4;stroke-width:0.03543307" />
    <rect
       id="rect192"
       height="492.66141"
       width="32.031494"
       y="215.80989"
       x="201.15607"
       class="BoundingBox"
       style="fill:none;stroke:none" />
    <path
       id="path194"
       d="m 214.9041,215.84532 0,470.09054 -13.7126,0 15.94488,22.46456 15.98032,-22.46456 -13.74803,0 0,-470.09054 -4.46457,0 z m -13.7126,0 0,0 z m 31.9252,492.5551 0,0 z"
       inkscape:connector-curvature="0"
       style="fill:#000000;stroke:none" />
    <path
       id="path196"
       d="m 214.9041,215.84532 0,470.09054 -13.7126,0 15.94488,22.46456 15.98032,-22.46456 -13.74803,0 0,-470.09054 -4.46457,0 z"
       inkscape:connector-curvature="0"
       style="fill:none;stroke:#3465a4;stroke-width:0.03543307" />
    <path
       id="path198"
       d="m 201.1915,215.84532 0,0 z"
       inkscape:connector-curvature="0"
       style="fill:none;stroke:#3465a4;stroke-width:0.03543307" />
    <path
       id="path200"
       d="m 233.1167,708.40042 0,0 z"
       inkscape:connector-curvature="0"
       style="fill:none;stroke:#3465a4;stroke-width:0.03543307" />
    <rect
       id="rect205"
       height="34.122047"
       width="70.901573"
       y="222.93193"
       x="272.05765"
       class="BoundingBox"
       style="fill:none;stroke:none" />
    <text
       id="text207"
       class="TextShape"
       x="-199.20219"
       y="81.199654"
       style="font-size:0.42519683px">
      <tspan
         id="tspan209"
         font-weight="400"
         font-size="635px"
         class="TextParagraph"
         style="font-size:22.5px;font-weight:400;font-family:'Liberation Sans, sans-serif'">
        <tspan
           id="tspan211"
           y="247.62878"
           x="280.91589"
           class="TextPosition">
          <tspan
             id="tspan213"
             style="fill:#000000;stroke:none">0</tspan>
        </tspan>
      </tspan>
    </text>
    <rect
       id="rect218"
       height="85.074799"
       width="230.35039"
       y="222.93193"
       x="45.285992"
       class="BoundingBox"
       style="fill:none;stroke:none" />
    <text
       id="text220"
       class="TextShape"
       x="-199.20219"
       y="81.199654"
       style="font-size:0.42519683px">
      <tspan
         id="tspan222"
         font-weight="400"
         font-size="635px"
         class="TextParagraph"
         style="font-size:22.5px;font-weight:400;font-family:'Liberation Sans, sans-serif'">
        <tspan
           id="tspan224"
           y="247.62878"
           x="54.14426"
           class="TextPosition">
          <tspan
             id="tspan226"
             style="fill:#000000;stroke:none">Distance to I:</tspan>
        </tspan>
      </tspan>
    </text>
    <rect
       id="rect231"
       height="46.098423"
       width="81.531494"
       y="283.16815"
       x="268.51434"
       class="BoundingBox"
       style="fill:none;stroke:none" />
    <rect
       id="rect244"
       height="42.555119"
       width="116.96456"
       y="385.92404"
       x="272.05765"
       class="BoundingBox"
       style="fill:none;stroke:none" />
    <rect
       id="rect257"
       height="42.555119"
       width="106.33464"
       y="478.05005"
       x="272.05765"
       class="BoundingBox"
       style="fill:none;stroke:none" />
    <rect
       id="rect270"
       height="34.122047"
       width="46.098423"
       y="538.28625"
       x="272.05765"
       class="BoundingBox"
       style="fill:none;stroke:none" />
    <rect
       id="rect283"
       height="38.374016"
       width="2.9409449"
       y="246.28232"
       x="-7.5447145"
       class="BoundingBox"
       style="fill:none;stroke:none" />
    <rect
       id="rect290"
       height="173.01968"
       width="27.744093"
       y="306.51855"
       x="-7.5447145"
       class="BoundingBox"
       style="fill:none;stroke:none" />
    <rect
       id="rect297"
       height="80.8937"
       width="17.114172"
       y="306.51855"
       x="-21.717943"
       class="BoundingBox"
       style="fill:none;stroke:none" />
    <rect
       id="rect304"
       height="5.7047243"
       width="356.49213"
       y="709.07367"
       x="-109.91085"
       class="BoundingBox"
       style="fill:none;stroke:none" />
    <rect
       id="rect311"
       height="34.122047"
       width="53.18504"
       y="222.93193"
       x="6.3096161"
       class="BoundingBox"
       style="fill:none;stroke:none" />
    <text
       id="text313"
       class="TextShape"
       x="-199.20219"
       y="81.199654"
       style="font-size:0.42519683px">
      <tspan
         id="tspan315"
         font-weight="400"
         font-size="635px"
         class="TextParagraph"
         style="font-size:22.5px;font-weight:400;font-family:'Liberation Sans, sans-serif'">
        <tspan
           id="tspan317"
           y="247.62878"
           x="15.167884"
           class="TextPosition">
          <tspan
             id="tspan319"
             style="fill:#000000;stroke:none">A</tspan>
        </tspan>
      </tspan>
    </text>
    <rect
       id="rect324"
       height="53.18504"
       width="53.18504"
       y="279.62485"
       x="13.39623"
       class="BoundingBox"
       style="fill:none;stroke:none" />
    <rect
       id="rect337"
       height="275.77557"
       width="87.980316"
       y="306.51855"
       x="-92.584084"
       class="BoundingBox"
       style="fill:none;stroke:none" />
    <rect
       id="rect344"
       height="33.838581"
       width="41.10236"
       y="385.92404"
       x="-71.643135"
       class="BoundingBox"
       style="fill:none;stroke:none" />
    <rect
       id="rect357"
       height="33.838581"
       width="34.015747"
       y="478.05005"
       x="38.199379"
       class="BoundingBox"
       style="fill:none;stroke:none" />
    <rect
       id="rect370"
       height="33.838581"
       width="31.606298"
       y="554.08942"
       x="-71.643135"
       class="BoundingBox"
       style="fill:none;stroke:none" />
    <rect
       id="rect383"
       height="24.944881"
       width="24.944881"
       y="538.25079"
       x="84.226936"
       class="BoundingBox"
       style="fill:none;stroke:none" />
    <path
       id="path389"
       d="m 84.26237,538.28625 0,0 z"
       inkscape:connector-curvature="0"
       style="fill:none;stroke:#3465a4;stroke-width:0.03543307" />
    <path
       id="path391"
       d="m 109.10095,563.12484 0,0 z"
       inkscape:connector-curvature="0"
       style="fill:none;stroke:#3465a4;stroke-width:0.03543307" />
    <rect
       id="rect396"
       height="24.944881"
       width="24.944881"
       y="697.69965"
       x="34.62064"
       class="BoundingBox"
       style="fill:none;stroke:none" />
    <path
       id="path402"
       d="m 34.656072,697.73507 0,0 z"
       inkscape:connector-curvature="0"
       style="fill:none;stroke:#3465a4;stroke-width:0.03543307" />
    <path
       id="path404"
       d="m 59.494654,722.57365 0,0 z"
       inkscape:connector-curvature="0"
       style="fill:none;stroke:#3465a4;stroke-width:0.03543307" />
    <rect
       id="rect409"
       height="33.838581"
       width="32.811024"
       y="534.74292"
       x="109.06552"
       class="BoundingBox"
       style="fill:none;stroke:none" />
    <rect
       id="rect422"
       height="233.25591"
       width="105.69685"
       y="306.51855"
       x="-7.5447145"
       class="BoundingBox"
       style="fill:none;stroke:none" />
    <rect
       id="rect429"
       height="137.58661"
       width="52.547241"
       y="561.63666"
       x="45.604889"
       class="BoundingBox"
       style="fill:none;stroke:none" />
    <rect
       id="rect436"
       height="258.05905"
       width="31.322834"
       y="501.40042"
       x="15.451348"
       class="BoundingBox"
       style="fill:none;stroke:none" />
    <rect
       id="rect443"
       height="33.838581"
       width="38.30315"
       y="672.93195"
       x="24.734812"
       class="BoundingBox"
       style="fill:none;stroke:none" />
    <rect
       id="rect456"
       height="92.161415"
       width="14.208661"
       y="208.7587"
       x="9.8529234"
       class="BoundingBox"
       style="fill:none;stroke:none" />
    <rect
       id="rect461"
       height="95.066925"
       width="32.20866"
       y="409.27444"
       x="-24.410856"
       class="BoundingBox"
       style="fill:none;stroke:none" />
    <rect
       id="rect468"
       height="24.944881"
       width="24.944881"
       y="633.9201"
       x="133.83324"
       class="BoundingBox"
       style="fill:none;stroke:none" />
    <path
       id="path474"
       d="m 133.86867,633.95554 0,0 z"
       inkscape:connector-curvature="0"
       style="fill:none;stroke:#3465a4;stroke-width:0.03543307" />
    <path
       id="path476"
       d="m 158.70725,658.79413 0,0 z"
       inkscape:connector-curvature="0"
       style="fill:none;stroke:#3465a4;stroke-width:0.03543307" />
    <rect
       id="rect481"
       height="73.807083"
       width="52.547241"
       y="561.63666"
       x="95.211189"
       class="BoundingBox"
       style="fill:none;stroke:none" />
    <rect
       id="rect488"
       height="33.838581"
       width="35.362206"
       y="644.58545"
       x="169.30174"
       class="BoundingBox"
       style="fill:none;stroke:none" />
    <rect
       id="rect501"
       height="24.944881"
       width="24.944881"
       y="743.76263"
       x="-96.48172"
       class="BoundingBox"
       style="fill:none;stroke:none" />
    <path
       id="path503"
       d="m -84.044713,743.79806 c 7.015748,0 12.401575,5.38583 12.401575,12.40157 0,7.01575 -5.385827,12.40158 -12.401575,12.40158 -7.015747,0 -12.401574,-5.38583 -12.401574,-12.40158 0,-7.01574 5.385827,-12.40157 12.401574,-12.40157 z m -12.401574,0 0,0 z m 24.838582,24.83858 0,0 z"
       inkscape:connector-curvature="0"
       style="fill:#205da9;stroke:none" />
    <path
       id="path505"
       d="m -84.044713,743.79806 c 7.015748,0 12.401575,5.38583 12.401575,12.40157 0,7.01575 -5.385827,12.40158 -12.401575,12.40158 -7.015747,0 -12.401574,-5.38583 -12.401574,-12.40158 0,-7.01574 5.385827,-12.40157 12.401574,-12.40157 z"
       inkscape:connector-curvature="0"
       style="fill:none;stroke:#205da9;stroke-width:0.03543307" />
    <path
       id="path507"
       d="m -96.446287,743.79806 0,0 z"
       inkscape:connector-curvature="0"
       style="fill:none;stroke:#205da9;stroke-width:0.03543307" />
    <path
       id="path509"
       d="m -71.607705,768.63664 0,0 z"
       inkscape:connector-curvature="0"
       style="fill:none;stroke:#205da9;stroke-width:0.03543307" />
    <rect
       id="rect514"
       height="84.933067"
       width="80.8937"
       y="504.44766"
       x="15.486781"
       class="BoundingBox"
       style="fill:none;stroke:none" />
    <rect
       id="rect521"
       height="98.645668"
       width="105.69685"
       y="657.30591"
       x="43.833237"
       class="BoundingBox"
       style="fill:none;stroke:none" />
    <rect
       id="rect528"
       height="24.944881"
       width="24.944881"
       y="786.28229"
       x="20.447411"
       class="BoundingBox"
       style="fill:none;stroke:none" />
    <path
       id="path530"
       d="m 32.884418,786.31774 c 7.015748,0 12.401575,5.38583 12.401575,12.40158 0,7.01575 -5.385827,12.40157 -12.401575,12.40157 -7.015747,0 -12.401574,-5.38582 -12.401574,-12.40157 0,-7.01575 5.385827,-12.40158 12.401574,-12.40158 z m -12.401574,0 0,0 z m 24.838582,24.83859 0,0 z"
       inkscape:connector-curvature="0"
       style="fill:#205da9;stroke:none" />
    <path
       id="path532"
       d="m 32.884418,786.31774 c 7.015748,0 12.401575,5.38583 12.401575,12.40158 0,7.01575 -5.385827,12.40157 -12.401575,12.40157 -7.015747,0 -12.401574,-5.38582 -12.401574,-12.40157 0,-7.01575 5.385827,-12.40158 12.401574,-12.40158 z"
       inkscape:connector-curvature="0"
       style="fill:none;stroke:#3465a4;stroke-width:0.03543307" />
    <path
       id="path534"
       d="m 20.482844,786.31774 0,0 z"
       inkscape:connector-curvature="0"
       style="fill:none;stroke:#3465a4;stroke-width:0.03543307" />
    <path
       id="path536"
       d="m 45.321426,811.15633 0,0 z"
       inkscape:connector-curvature="0"
       style="fill:none;stroke:#3465a4;stroke-width:0.03543307" />
    <rect
       id="rect541"
       height="35.539368"
       width="141.62598"
       y="752.97522"
       x="-83.725815"
       class="BoundingBox"
       style="fill:none;stroke:none" />
    <path
       id="path543"
       d="m -82.273059,767.36105 c 11.090551,4.32284 24.484251,5.81103 37.452755,7.58268 12.401574,1.66535 24.059055,1.84252 36.8149597,3.40157 10.3818895,1.24016 21.1535433,1.52363 31.6417313,0.35433 10.38189,-1.13385 7.972441,-8.07874 7.759843,-12.47244 -0.425197,-8.71653 -17.716535,-7.40551 -27.7440943,-8.29134 -14.6692907,-1.34645 -22.3582667,7.01575 -23.9173227,13.96063 -1.204724,5.2441 3.897638,10.41733 11.6220475,13.21654 8.85826746,3.18898 20.0905505,2.01968 28.4173225,-0.74409 7.15748,-2.37402 15.200787,-4.99607 18.744094,-9.4252 4.181102,-5.31496 14.562991,-5.74016 17.397637,-12.11811 2.622047,-5.84646 -6.094488,-8.92914 -13.5,-8.32677 -9.744094,0.77952 -9.389763,7.08661 -11.692913,10.98425 -2.586614,4.5 -4.03937,10.02756 0.637795,14.35039 l 5.208662,3.79134 2.586614,1.87795"
       inkscape:connector-curvature="0"
       style="fill:none;stroke:#000000;stroke-width:2.87007856;stroke-linejoin:round" />
    <rect
       id="rect548"
       height="150.20079"
       width="111.5433"
       y="671.47919"
       x="29.660009"
       class="BoundingBox"
       style="fill:none;stroke:none" />
    <rect
       id="rect555"
       height="33.838581"
       width="28.381889"
       y="736.71143"
       x="-131.87936"
       class="BoundingBox"
       style="fill:none;stroke:none" />
    <rect
       id="rect568"
       height="33.838581"
       width="29.090551"
       y="782.77441"
       x="-4.3203049"
       class="BoundingBox"
       style="fill:none;stroke:none" />
    <rect
       id="rect581"
       height="33.838581"
       width="42.732281"
       y="584.34924"
       x="272.05765"
       class="BoundingBox"
       style="fill:none;stroke:none" />
    <rect
       id="rect594"
       height="33.838581"
       width="42.732281"
       y="633.95557"
       x="272.05765"
       class="BoundingBox"
       style="fill:none;stroke:none" />
    <rect
       id="rect607"
       height="33.838581"
       width="42.732281"
       y="697.73505"
       x="272.05765"
       class="BoundingBox"
       style="fill:none;stroke:none" />
    <rect
       id="rect620"
       height="179.64566"
       width="72.425194"
       y="604.72327"
       x="-92.371483"
       class="BoundingBox"
       style="fill:none;stroke:none" />
  </g>
  <g
     inkscape:groupmode="layer"
     id="layer2"
     inkscape:label="o2"
     style="display:inline">
    <text
       transform="translate(131.87936,-208.7587)"
       id="text233"
       class="TextShape"
       x="-199.20219"
       y="81.199654"
       style="font-size:0.42519683px">
      <tspan
         id="tspan235"
         font-weight="400"
         font-size="635px"
         class="TextParagraph"
         style="font-size:22.5px;font-weight:400;font-family:'Liberation Sans, sans-serif'">
        <tspan
           id="tspan237"
           y="307.86499"
           x="277.37259"
           class="TextPosition">
          <tspan
             id="tspan239"
             style="fill:#000000;stroke:none">5</tspan>
        </tspan>
      </tspan>
    </text>
    <path
       transform="translate(131.87936,-208.7587)"
       id="path285"
       d="m -6.0919585,247.73508 0,0 0,35.43307 0,0"
       inkscape:connector-curvature="0"
       style="fill:none;stroke:#000000;stroke-width:2.87007856;stroke-linejoin:round" />
    <text
       transform="translate(131.87936,-208.7587)"
       id="text326"
       class="TextShape"
       x="-199.20219"
       y="81.199654"
       style="font-size:0.42519683px">
      <tspan
         id="tspan328"
         font-weight="400"
         font-size="635px"
         class="TextParagraph"
         style="font-size:22.5px;font-weight:400;font-family:'Liberation Sans, sans-serif'">
        <tspan
           id="tspan330"
           y="304.32169"
           x="22.254498"
           class="TextPosition">
          <tspan
             id="tspan332"
             style="fill:#000000;stroke:none">B</tspan>
        </tspan>
      </tspan>
    </text>
    <path
       id="path129"
       d="m 125.7874,74.40945 c 7.01575,0 12.40158,5.38583 12.40158,12.40157 0,7.01575 -5.38583,12.40158 -12.40158,12.40158 -7.01575,0 -12.40157,-5.38583 -12.40157,-12.40158 0,-7.01574 5.38582,-12.40157 12.40157,-12.40157 z m -12.40157,0 0,0 z m 24.83858,24.83858 0,0 z"
       inkscape:connector-curvature="0"
       style="fill:#ff9900;stroke:none" />
  </g>
  <g
     inkscape:groupmode="layer"
     id="layer3"
     inkscape:label="o3"
     style="display:inline">
    <path
       transform="translate(131.87936,-208.7587)"
       id="path299"
       d="m -6.0919585,307.9713 0,0 -14.1732285,77.95275 0,0"
       inkscape:connector-curvature="0"
       style="fill:none;stroke:#000000;stroke-width:2.87007856;stroke-linejoin:round;display:inline" />
    <text
       transform="translate(131.87936,-208.7587)"
       id="text346"
       class="TextShape"
       x="-199.20219"
       y="81.199654"
       style="font-size:0.42519683px;display:inline">
      <tspan
         id="tspan348"
         font-weight="400"
         font-size="635px"
         class="TextParagraph"
         style="font-size:22.5px;font-weight:400;font-family:'Liberation Sans, sans-serif'">
        <tspan
           id="tspan350"
           y="410.62091"
           x="-62.78487"
           class="TextPosition">
          <tspan
             id="tspan352"
             style="fill:#000000;stroke:none">C</tspan>
        </tspan>
      </tspan>
    </text>
    <path
       id="path168"
       d="m 111.61417,177.16535 c 7.01575,0 12.40158,5.38583 12.40158,12.40158 0,7.01575 -5.38583,12.40157 -12.40158,12.40157 -7.01574,0 -12.40157,-5.38582 -12.40157,-12.40157 0,-7.01575 5.38583,-12.40158 12.40157,-12.40158 z m -12.40157,0 0,0 z m 24.83858,24.83859 0,0 z"
       inkscape:connector-curvature="0"
       style="fill:#ff9900;stroke:none;display:inline" />
    <text
       transform="translate(131.87936,-208.7587)"
       id="text246"
       class="TextShape"
       x="-199.20219"
       y="81.199654"
       style="font-size:0.42519683px;display:inline">
      <tspan
         id="tspan248"
         font-weight="400"
         font-size="635px"
         class="TextParagraph"
         style="font-size:22.5px;font-weight:400;font-family:'Liberation Sans, sans-serif'">
        <tspan
           id="tspan250"
           y="410.62091"
           x="280.91589"
           class="TextPosition">
          <tspan
             id="tspan252"
             style="fill:#000000;stroke:none">11</tspan>
        </tspan>
      </tspan>
    </text>
  </g>
  <g
     inkscape:groupmode="layer"
     id="layer4"
     inkscape:label="o4"
     style="display:inline">
    <path
       transform="translate(131.87936,-208.7587)"
       id="path142"
       d="m 18.71119,478.05003 c 7.015748,0 12.401575,5.38583 12.401575,12.40158 0,7.01575 -5.385827,12.40157 -12.401575,12.40157 -7.015747,0 -12.401574,-5.38582 -12.401574,-12.40157 0,-7.01575 5.385827,-12.40158 12.401574,-12.40158 z m -12.401574,0 0,0 z m 24.838582,24.83859 0,0 z"
       inkscape:connector-curvature="0"
       style="fill:#ff9900;stroke:none;display:inline" />
    <path
       transform="translate(131.87936,-208.7587)"
       id="path292"
       d="m 18.71119,478.05003 0,0 -24.8031485,-170.07873 0,0"
       inkscape:connector-curvature="0"
       style="fill:none;stroke:#000000;stroke-width:2.87007856;stroke-linejoin:round;display:inline" />
    <text
       transform="translate(131.87936,-208.7587)"
       id="text359"
       class="TextShape"
       x="-199.20219"
       y="81.199654"
       style="font-size:0.42519683px;display:inline">
      <tspan
         id="tspan361"
         font-weight="400"
         font-size="635px"
         class="TextParagraph"
         style="font-size:22.5px;font-weight:400;font-family:'Liberation Sans, sans-serif'">
        <tspan
           id="tspan363"
           y="502.74689"
           x="47.057648"
           class="TextPosition">
          <tspan
             id="tspan365"
             style="fill:#000000;stroke:none">D</tspan>
        </tspan>
      </tspan>
    </text>
    <path
       transform="translate(131.87936,-208.7587)"
       id="path463"
       d="m -22.03684,410.7272 c -7.086614,144.46063 28.346456,75.82677 28.346456,75.82677"
       inkscape:connector-curvature="0"
       style="fill:none;stroke:#000000;stroke-width:2.87007856;stroke-linejoin:round;display:inline" />
    <text
       transform="translate(131.87936,-208.7587)"
       id="text259"
       class="TextShape"
       x="-199.20219"
       y="81.199654"
       style="font-size:0.42519683px;display:inline">
      <tspan
         id="tspan261"
         font-weight="400"
         font-size="635px"
         class="TextParagraph"
         style="font-size:22.5px;font-weight:400;font-family:'Liberation Sans, sans-serif'">
        <tspan
           id="tspan263"
           y="502.74689"
           x="280.91589"
           class="TextPosition">
          <tspan
             id="tspan265"
             style="fill:#000000;stroke:none">12</tspan>
        </tspan>
      </tspan>
    </text>
  </g>
  <g
     inkscape:groupmode="layer"
     id="layer5"
     inkscape:label="o5"
     style="display:inline">
    <path
       transform="translate(131.87936,-208.7587)"
       id="path385"
       d="m 96.663944,538.28625 c 7.015746,0 12.401576,5.38583 12.401576,12.40158 0,7.01575 -5.38583,12.40157 -12.401576,12.40157 -7.015747,0 -12.401574,-5.38582 -12.401574,-12.40157 0,-7.01575 5.385827,-12.40158 12.401574,-12.40158 z m -12.401574,0 0,0 z m 24.83858,24.83859 0,0 z"
       inkscape:connector-curvature="0"
       style="fill:#ff9900;stroke:none;display:inline" />
    <text
       transform="translate(131.87936,-208.7587)"
       id="text411"
       class="TextShape"
       x="-199.20219"
       y="81.199654"
       style="font-size:0.42519683px;display:inline">
      <tspan
         id="tspan413"
         font-weight="400"
         font-size="635px"
         class="TextParagraph"
         style="font-size:22.5px;font-weight:400;font-family:'Liberation Sans, sans-serif'">
        <tspan
           id="tspan415"
           y="559.43982"
           x="117.92379"
           class="TextPosition">
          <tspan
             id="tspan417"
             style="fill:#000000;stroke:none">E</tspan>
        </tspan>
      </tspan>
    </text>
    <path
       transform="translate(131.87936,-208.7587)"
       id="path424"
       d="M -6.0919585,307.9713 96.663944,538.28625"
       inkscape:connector-curvature="0"
       style="fill:none;stroke:#000000;stroke-width:2.87007856;stroke-linejoin:round;display:inline" />
    <text
       transform="translate(131.87936,-208.7587)"
       id="text272"
       class="TextShape"
       x="-199.20219"
       y="81.199654"
       style="font-size:0.42519683px;display:inline">
      <tspan
         id="tspan274"
         font-weight="400"
         font-size="635px"
         class="TextParagraph"
         style="font-size:22.5px;font-weight:400;font-family:'Liberation Sans, sans-serif'">
        <tspan
           id="tspan276"
           y="562.98309"
           x="280.91589"
           class="TextPosition">
          <tspan
             id="tspan278"
             style="fill:#000000;stroke:none">13</tspan>
        </tspan>
      </tspan>
    </text>
    <path
       transform="translate(131.87936,-208.7587)"
       id="path516"
       d="m 16.939537,505.90043 c 63.779526,141.73228 77.952754,56.69291 77.952754,56.69291"
       inkscape:connector-curvature="0"
       style="fill:none;stroke:#000000;stroke-width:2.87007856;stroke-linejoin:round;display:inline" />
  </g>
  <g
     inkscape:groupmode="layer"
     id="layer6"
     inkscape:label="o6"
     style="display:inline">
    <path
       transform="translate(131.87936,-208.7587)"
       id="path181"
       d="m -91.131327,580.80594 c 7.015748,0 12.401575,5.38582 12.401575,12.40157 0,7.01575 -5.385827,12.40158 -12.401575,12.40158 -7.015747,0 -12.401573,-5.38583 -12.401573,-12.40158 0,-7.01575 5.385826,-12.40157 12.401573,-12.40157 z m -12.401573,0 0,0 z m 24.838581,24.83858 0,0 z"
       inkscape:connector-curvature="0"
       style="fill:#ff9900;stroke:none;display:inline" />
    <path
       transform="translate(131.87936,-208.7587)"
       id="path339"
       d="M -6.0919585,307.9713 -91.131327,580.80594"
       inkscape:connector-curvature="0"
       style="fill:none;stroke:#000000;stroke-width:2.87007856;stroke-linejoin:round;display:inline" />
    <text
       transform="translate(131.87936,-208.7587)"
       id="text583"
       class="TextShape"
       x="-199.20219"
       y="81.199654"
       style="font-size:0.42519683px;display:inline">
      <tspan
         id="tspan585"
         font-weight="400"
         font-size="635px"
         class="TextParagraph"
         style="font-size:22.5px;font-weight:400;font-family:'Liberation Sans, sans-serif'">
        <tspan
           id="tspan587"
           y="609.04608"
           x="280.91589"
           class="TextPosition">
          <tspan
             id="tspan589"
             style="fill:#000000;stroke:none">14</tspan>
        </tspan>
      </tspan>
    </text>
    <path
       transform="translate(131.87936,-208.7587)"
       id="path622"
       d="m -90.918728,606.17602 c 1.523622,9.38976 3.614173,18.77952 7.015748,27.67322 2.834645,7.44095 8.645669,13.32284 11.728346,20.62205 3.047244,7.26378 7.937008,13.21654 12.188976,19.70079 3.933071,6.02362 7.582677,12.29527 11.728346,18.28346 4.464567,6.44882 6.377953,14.31496 7.511811,22.00394 1.027559,7.01575 2.976378,13.88976 2.799213,21.11811 -0.141733,5.70472 -0.283465,11.58661 0,17.32677 0.318897,6.51968 -0.531496,13.2874 0.921259,19.70079 2.338583,10.45275 -11.409448,8.7874 -15.909448,9.85039 -6.944882,1.62992 -8.610236,-6.90945 -7.511811,-11.26772 1.700787,-6.80315 6.980315,-11.72834 11.728346,-16.40551 4.712599,-4.64173 11.65748,-7.37008 18.744094,-6.55512 8.362205,0.9567 7.72441,-10.52362 7.476378,-16.40551 -0.354331,-7.97244 -8.291338,-6.09449 -12.649606,-6.09449 -7.866141,0 -10.381889,8.75197 -13.570866,14.52756 -5.811023,10.55906 9.070866,12.93307 14.988189,15.94488 4.677165,2.37402 11.303149,4.21654 12.188976,10.77166 0.744094,5.49212 -2.586614,10.77165 -7.511811,13.11023 -7.582677,3.57874 -18.496062,4.99607 -23.881889,-3.72047 -3.011811,-4.88976 -3.259842,-9.81496 -5.173228,-15.02362 -2.267717,-6.16535 -0.318898,-13.25197 -2.799213,-19.66535 -2.090551,-5.3504 -6.271653,-11.12599 -12.188976,-10.80709 -4.606299,0.24803 -11.728346,3.7559 -9.850393,9.85039 l -0.956693,3.75591"
       inkscape:connector-curvature="0"
       style="fill:none;stroke:#000000;stroke-width:2.87007856;stroke-linejoin:round;display:inline" />
    <text
       transform="translate(131.87936,-208.7587)"
       id="text372"
       class="TextShape"
       x="-199.20219"
       y="81.199654"
       style="font-size:0.42519683px;display:inline">
      <tspan
         id="tspan374"
         font-weight="400"
         font-size="635px"
         class="TextParagraph"
         style="font-size:22.5px;font-weight:400;font-family:'Liberation Sans, sans-serif'">
        <tspan
           id="tspan376"
           y="578.78625"
           x="-62.78487"
           class="TextPosition">
          <tspan
             id="tspan378"
             style="fill:#000000;stroke:none">F</tspan>
        </tspan>
      </tspan>
    </text>
  </g>
  <g
     inkscape:groupmode="layer"
     id="layer7"
     inkscape:label="o7"
     style="display:inline">
    <path
       transform="translate(131.87936,-208.7587)"
       id="path470"
       d="m 146.27024,633.95554 c 7.01575,0 12.40158,5.38583 12.40158,12.40158 0,7.01575 -5.38583,12.40157 -12.40158,12.40157 -7.01575,0 -12.40157,-5.38582 -12.40157,-12.40157 0,-7.01575 5.38582,-12.40158 12.40157,-12.40158 z m -12.40157,0 0,0 z m 24.83858,24.83859 0,0 z"
       inkscape:connector-curvature="0"
       style="fill:#ff9900;stroke:none;display:inline" />
    <path
       transform="translate(131.87936,-208.7587)"
       id="path483"
       d="m 96.663944,563.0894 49.606296,70.86614"
       inkscape:connector-curvature="0"
       style="fill:none;stroke:#000000;stroke-width:2.87007856;stroke-linejoin:round;display:inline" />
    <text
       transform="translate(131.87936,-208.7587)"
       id="text490"
       class="TextShape"
       x="-199.20219"
       y="81.199654"
       style="font-size:0.42519683px;display:inline">
      <tspan
         id="tspan492"
         font-weight="400"
         font-size="635px"
         class="TextParagraph"
         style="font-size:22.5px;font-weight:400;font-family:'Liberation Sans, sans-serif'">
        <tspan
           id="tspan494"
           y="669.28229"
           x="178.16"
           class="TextPosition">
          <tspan
             id="tspan496"
             style="fill:#000000;stroke:none">G</tspan>
        </tspan>
      </tspan>
    </text>
    <text
       transform="translate(131.87936,-208.7587)"
       id="text596"
       class="TextShape"
       x="-199.20219"
       y="81.199654"
       style="font-size:0.42519683px;display:inline">
      <tspan
         id="tspan598"
         font-weight="400"
         font-size="635px"
         class="TextParagraph"
         style="font-size:22.5px;font-weight:400;font-family:'Liberation Sans, sans-serif'">
        <tspan
           id="tspan600"
           y="658.6524"
           x="280.91589"
           class="TextPosition">
          <tspan
             id="tspan602"
             style="fill:#000000;stroke:none">17</tspan>
        </tspan>
      </tspan>
    </text>
  </g>
  <g
     inkscape:groupmode="layer"
     id="layer8"
     inkscape:label="o8"
     style="display:inline">
    <path
       transform="translate(131.87936,-208.7587)"
       id="path306"
       d="m -107.07621,711.9083 350.78739,0"
       inkscape:connector-curvature="0"
       style="fill:none;stroke:#ff9900;stroke-width:5.6338582;stroke-linejoin:round;display:inline" />
    <path
       transform="translate(131.87936,-208.7587)"
       id="path398"
       d="m 47.057646,697.73507 c 7.015748,0 12.401575,5.38583 12.401575,12.40157 0,7.01575 -5.385827,12.40158 -12.401575,12.40158 -7.015747,0 -12.401574,-5.38583 -12.401574,-12.40158 0,-7.01574 5.385827,-12.40157 12.401574,-12.40157 z m -12.401574,0 0,0 z m 24.838582,24.83858 0,0 z"
       inkscape:connector-curvature="0"
       style="fill:#ff9900;stroke:none;display:inline" />
    <path
       transform="translate(131.87936,-208.7587)"
       id="path431"
       d="M 96.663944,563.0894 47.057646,697.73507"
       inkscape:connector-curvature="0"
       style="fill:none;stroke:#000000;stroke-width:2.87007856;stroke-linejoin:round;display:inline" />
    <text
       transform="translate(131.87936,-208.7587)"
       id="text609"
       class="TextShape"
       x="-199.20219"
       y="81.199654"
       style="font-size:0.42519683px;display:inline">
      <tspan
         id="tspan611"
         font-weight="400"
         font-size="635px"
         class="TextParagraph"
         style="font-size:22.5px;font-weight:400;font-family:'Liberation Sans, sans-serif'">
        <tspan
           id="tspan613"
           y="722.43195"
           x="280.91589"
           class="TextPosition">
          <tspan
             id="tspan615"
             style="fill:#000000;stroke:none">21</tspan>
        </tspan>
      </tspan>
    </text>
    <text
       transform="translate(131.87936,-208.7587)"
       id="text445"
       class="TextShape"
       x="-199.20219"
       y="81.199654"
       style="font-size:0.42519683px;display:inline">
      <tspan
         id="tspan447"
         font-weight="400"
         font-size="635px"
         class="TextParagraph"
         style="font-size:22.5px;font-weight:400;font-family:'Liberation Sans, sans-serif'">
        <tspan
           id="tspan449"
           y="697.62878"
           x="33.593079"
           class="TextPosition">
          <tspan
             id="tspan451"
             style="fill:#000000;stroke:none">I</tspan>
        </tspan>
      </tspan>
    </text>
    <path
       transform="translate(131.87936,-208.7587)"
       id="path550"
       d="m 31.112765,810.87286 c 7.15748,8.22047 21.153543,9.3189 32.633857,9 14.42126,-0.35433 29.055118,-1.87795 43.228348,0.0354 12.33071,1.62993 21.57874,-4.1811 27,-11.26771 7.12204,-9.38977 6.80315,-20.55118 3.50787,-30.40158 -2.79921,-8.4685 -8.5748,-16.8307 -18.4252,-21.93307 -8.53937,-4.3937 -19.771648,-5.06693 -29.055113,0.0354 -11.870078,6.44882 -9.035433,22.92519 7.795276,23.59842 12.011807,0.49606 27.602357,-3.47244 26.964567,-15.16535 -0.49606,-8.8937 1.06299,-17.6811 -3.57874,-26.46851 -3.36614,-6.37795 -2.72835,-13.57086 -5.66929,-20.19685 -2.90551,-6.59055 -7.29921,-12.61417 -9.92126,-19.13385 -3.50788,-8.7874 -9.141734,-18.49607 -20.586616,-21.93307 -7.830708,-2.37402 -18.248031,-6.90945 -26.220471,-1.70079 l -6.377953,9.53149 -1.417323,5.63386 -2.834645,5.06693"
       inkscape:connector-curvature="0"
       style="fill:none;stroke:#000000;stroke-width:2.87007856;stroke-linejoin:round;display:inline" />
    <text
       transform="translate(131.87936,-208.7587)"
       id="text570"
       class="TextShape"
       x="-199.20219"
       y="81.199654"
       style="font-size:0.42519683px;display:inline">
      <tspan
         id="tspan572"
         font-weight="400"
         font-size="635px"
         class="TextParagraph"
         style="font-size:22.5px;font-weight:400;font-family:'Liberation Sans, sans-serif'">
        <tspan
           id="tspan574"
           y="807.47131"
           x="4.5379624"
           class="TextPosition">
          <tspan
             id="tspan576"
             style="fill:#000000;stroke:none">J</tspan>
        </tspan>
      </tspan>
    </text>
    <text
       transform="translate(131.87936,-208.7587)"
       id="text557"
       class="TextShape"
       x="-199.20219"
       y="81.199654"
       style="font-size:0.42519683px;display:inline">
      <tspan
         id="tspan559"
         font-weight="400"
         font-size="635px"
         class="TextParagraph"
         style="font-size:22.5px;font-weight:400;font-family:'Liberation Sans, sans-serif'">
        <tspan
           id="tspan561"
           y="761.40833"
           x="-123.02109"
           class="TextPosition">
          <tspan
             id="tspan563"
             style="fill:#000000;stroke:none">H</tspan>
        </tspan>
      </tspan>
    </text>
    <path
       transform="translate(131.87936,-208.7587)"
       id="path438"
       d="M 17.152135,502.85318 C 13.785994,887.30199 45.285993,723.17601 45.285993,723.17601"
       inkscape:connector-curvature="0"
       style="fill:none;stroke:#000000;stroke-width:2.87007856;stroke-linejoin:round;display:inline" />
    <path
       transform="translate(131.87936,-208.7587)"
       id="path523"
       d="M 148.0419,658.75869 C 65.057646,829.12089 45.285993,720.09334 45.285993,720.09334"
       inkscape:connector-curvature="0"
       style="fill:none;stroke:#000000;stroke-width:2.87007856;stroke-linejoin:round;display:inline" />
  </g>
  <g
     inkscape:groupmode="layer"
     id="layer9"
     inkscape:label="o9" />
</svg>
